{
 "cells": [
  {
   "cell_type": "code",
   "execution_count": 1,
   "metadata": {},
   "outputs": [],
   "source": [
    "import pandas as pd\n",
    "import time\n",
    "from datetime import datetime\n",
    "import cv2\n",
    "import numpy as np\n",
    "import os\n",
    "import youtube_dl"
   ]
  },
  {
   "cell_type": "code",
   "execution_count": 2,
   "metadata": {},
   "outputs": [],
   "source": [
    "\n",
    "def get_sec(time_str):\n",
    "    \"\"\"Get Seconds from time.\"\"\"\n",
    "    h, m, s = time_str.split(':')\n",
    "    return int(h) * 3600 + int(m) * 60 + int(s)"
   ]
  },
  {
   "cell_type": "code",
   "execution_count": 3,
   "metadata": {},
   "outputs": [
    {
     "data": {
      "text/html": [
       "<div>\n",
       "<style scoped>\n",
       "    .dataframe tbody tr th:only-of-type {\n",
       "        vertical-align: middle;\n",
       "    }\n",
       "\n",
       "    .dataframe tbody tr th {\n",
       "        vertical-align: top;\n",
       "    }\n",
       "\n",
       "    .dataframe thead th {\n",
       "        text-align: right;\n",
       "    }\n",
       "</style>\n",
       "<table border=\"1\" class=\"dataframe\">\n",
       "  <thead>\n",
       "    <tr style=\"text-align: right;\">\n",
       "      <th></th>\n",
       "      <th>Title</th>\n",
       "      <th>URL</th>\n",
       "      <th>start_time</th>\n",
       "      <th>end_time</th>\n",
       "      <th>move</th>\n",
       "    </tr>\n",
       "  </thead>\n",
       "  <tbody>\n",
       "    <tr>\n",
       "      <th>0</th>\n",
       "      <td>Country 2 Step Basic Under Arm Turn. The Mans ...</td>\n",
       "      <td>https://www.youtube.com/watch?v=qxqu7p8oK5g</td>\n",
       "      <td>00:00:16</td>\n",
       "      <td>00:00:21</td>\n",
       "      <td>turn</td>\n",
       "    </tr>\n",
       "    <tr>\n",
       "      <th>1</th>\n",
       "      <td>Country 2 Step Basic Under Arm Turn. The Mans ...</td>\n",
       "      <td>https://www.youtube.com/watch?v=qxqu7p8oK5g</td>\n",
       "      <td>00:00:28</td>\n",
       "      <td>00:00:33</td>\n",
       "      <td>turn</td>\n",
       "    </tr>\n",
       "    <tr>\n",
       "      <th>2</th>\n",
       "      <td>Country 2 Step Basic Under Arm Turn. The Mans ...</td>\n",
       "      <td>https://www.youtube.com/watch?v=qxqu7p8oK5g</td>\n",
       "      <td>00:00:45</td>\n",
       "      <td>00:00:50</td>\n",
       "      <td>turn</td>\n",
       "    </tr>\n",
       "    <tr>\n",
       "      <th>3</th>\n",
       "      <td>Country 2 Step Basic Under Arm Turn. The Mans ...</td>\n",
       "      <td>https://www.youtube.com/watch?v=qxqu7p8oK5g</td>\n",
       "      <td>00:02:13</td>\n",
       "      <td>00:02:18</td>\n",
       "      <td>turn</td>\n",
       "    </tr>\n",
       "    <tr>\n",
       "      <th>4</th>\n",
       "      <td>Country 2 Step Basic Under Arm Turn. The Mans ...</td>\n",
       "      <td>https://www.youtube.com/watch?v=qxqu7p8oK5g</td>\n",
       "      <td>00:02:28</td>\n",
       "      <td>00:02:33</td>\n",
       "      <td>turn</td>\n",
       "    </tr>\n",
       "    <tr>\n",
       "      <th>5</th>\n",
       "      <td>Country 2 Step Basic Under Arm Turn. The Mans ...</td>\n",
       "      <td>https://www.youtube.com/watch?v=qxqu7p8oK5g</td>\n",
       "      <td>00:02:55</td>\n",
       "      <td>00:02:59</td>\n",
       "      <td>turn</td>\n",
       "    </tr>\n",
       "    <tr>\n",
       "      <th>6</th>\n",
       "      <td>Country 2 Step Basic Under Arm Turn. The Mans ...</td>\n",
       "      <td>https://www.youtube.com/watch?v=qxqu7p8oK5g</td>\n",
       "      <td>00:03:23</td>\n",
       "      <td>00:03:28</td>\n",
       "      <td>turn</td>\n",
       "    </tr>\n",
       "    <tr>\n",
       "      <th>7</th>\n",
       "      <td>Country 2 Step Basic Under Arm Turn. The Mans ...</td>\n",
       "      <td>https://www.youtube.com/watch?v=qxqu7p8oK5g</td>\n",
       "      <td>00:03:55</td>\n",
       "      <td>00:03:59</td>\n",
       "      <td>turn</td>\n",
       "    </tr>\n",
       "    <tr>\n",
       "      <th>8</th>\n",
       "      <td>Country 2 Step Basic Under Arm Turn. The Mans ...</td>\n",
       "      <td>https://www.youtube.com/watch?v=qxqu7p8oK5g</td>\n",
       "      <td>00:04:20</td>\n",
       "      <td>00:04:24</td>\n",
       "      <td>turn</td>\n",
       "    </tr>\n",
       "  </tbody>\n",
       "</table>\n",
       "</div>"
      ],
      "text/plain": [
       "                                               Title  \\\n",
       "0  Country 2 Step Basic Under Arm Turn. The Mans ...   \n",
       "1  Country 2 Step Basic Under Arm Turn. The Mans ...   \n",
       "2  Country 2 Step Basic Under Arm Turn. The Mans ...   \n",
       "3  Country 2 Step Basic Under Arm Turn. The Mans ...   \n",
       "4  Country 2 Step Basic Under Arm Turn. The Mans ...   \n",
       "5  Country 2 Step Basic Under Arm Turn. The Mans ...   \n",
       "6  Country 2 Step Basic Under Arm Turn. The Mans ...   \n",
       "7  Country 2 Step Basic Under Arm Turn. The Mans ...   \n",
       "8  Country 2 Step Basic Under Arm Turn. The Mans ...   \n",
       "\n",
       "                                           URL start_time  end_time  move  \n",
       "0  https://www.youtube.com/watch?v=qxqu7p8oK5g   00:00:16  00:00:21  turn  \n",
       "1  https://www.youtube.com/watch?v=qxqu7p8oK5g   00:00:28  00:00:33  turn  \n",
       "2  https://www.youtube.com/watch?v=qxqu7p8oK5g   00:00:45  00:00:50  turn  \n",
       "3  https://www.youtube.com/watch?v=qxqu7p8oK5g   00:02:13  00:02:18  turn  \n",
       "4  https://www.youtube.com/watch?v=qxqu7p8oK5g   00:02:28  00:02:33  turn  \n",
       "5  https://www.youtube.com/watch?v=qxqu7p8oK5g   00:02:55  00:02:59  turn  \n",
       "6  https://www.youtube.com/watch?v=qxqu7p8oK5g   00:03:23  00:03:28  turn  \n",
       "7  https://www.youtube.com/watch?v=qxqu7p8oK5g   00:03:55  00:03:59  turn  \n",
       "8  https://www.youtube.com/watch?v=qxqu7p8oK5g   00:04:20  00:04:24  turn  "
      ]
     },
     "execution_count": 3,
     "metadata": {},
     "output_type": "execute_result"
    }
   ],
   "source": [
    "os.chdir('/Users/max/Documents/Insight/TwoStepper/classifier')\n",
    "df  = pd.read_csv('twostepper_input.csv')\n",
    "url_unique_vals = df.URL.unique()\n",
    "title_unique_vals = df.Title.unique()\n",
    "\n",
    "# [df['URL'].str.contains(url_unique_vals[0])]\n",
    "df[df['Title'].str.match(title_unique_vals[0])]\n",
    "\n"
   ]
  },
  {
   "cell_type": "code",
   "execution_count": 13,
   "metadata": {},
   "outputs": [
    {
     "name": "stdout",
     "output_type": "stream",
     "text": [
      "ffmpeg version 4.0.2 Copyright (c) 2000-2018 the FFmpeg developers\n",
      "  built with Apple LLVM version 6.1.0 (clang-602.0.53) (based on LLVM 3.6.0svn)\n",
      "  configuration: --prefix=/anaconda3 --disable-doc --disable-openssl --enable-shared --enable-static --extra-cflags='-Wall -g -m64 -pipe -O3 -march=x86-64 -fPIC' --extra-cxxflags='-Wall -g -m64 -pipe -O3 -march=x86-64 -fPIC' --extra-libs='-lpthread -lm -lz' --enable-zlib --enable-pic --enable-pthreads --enable-gpl --enable-version3 --enable-hardcoded-tables --enable-avresample --enable-libfreetype --enable-gnutls --enable-libx264 --enable-libopenh264\n",
      "  libavutil      56. 14.100 / 56. 14.100\n",
      "  libavcodec     58. 18.100 / 58. 18.100\n",
      "  libavformat    58. 12.100 / 58. 12.100\n",
      "  libavdevice    58.  3.100 / 58.  3.100\n",
      "  libavfilter     7. 16.100 /  7. 16.100\n",
      "  libavresample   4.  0.  0 /  4.  0.  0\n",
      "  libswscale      5.  1.100 /  5.  1.100\n",
      "  libswresample   3.  1.100 /  3.  1.100\n",
      "  libpostproc    55.  1.100 / 55.  1.100\n",
      "Input #0, mov,mp4,m4a,3gp,3g2,mj2, from 'qxqu7p8oK5g.mp4':\n",
      "  Metadata:\n",
      "    major_brand     : dash\n",
      "    minor_version   : 0\n",
      "    compatible_brands: iso6avc1mp41\n",
      "    creation_time   : 2019-12-10T13:01:51.000000Z\n",
      "  Duration: 00:05:41.37, start: 0.000000, bitrate: 1266 kb/s\n",
      "    Stream #0:0(und): Video: h264 (Main) (avc1 / 0x31637661), yuv420p(tv, bt709, progressive), 1280x720 [SAR 1:1 DAR 16:9], 39 kb/s, 29.97 fps, 29.97 tbr, 30k tbn, 59.94 tbc (default)\n",
      "    Metadata:\n",
      "      creation_time   : 2019-12-10T13:01:51.000000Z\n",
      "      handler_name    : ISO Media file produced by Google Inc.\n",
      "Output #0, mp4, to '/Users/max/Documents/Insight/TwoStepper/classifier/movie_clips/qxqu7p8oK5g_16_21.mp4':\n",
      "  Metadata:\n",
      "    major_brand     : dash\n",
      "    minor_version   : 0\n",
      "    compatible_brands: iso6avc1mp41\n",
      "    encoder         : Lavf58.12.100\n",
      "    Stream #0:0(und): Video: h264 (Main) (avc1 / 0x31637661), yuv420p(tv, bt709, progressive), 1280x720 [SAR 1:1 DAR 16:9], q=2-31, 39 kb/s, 29.97 fps, 29.97 tbr, 30k tbn, 30k tbc (default)\n",
      "    Metadata:\n",
      "      creation_time   : 2019-12-10T13:01:51.000000Z\n",
      "      handler_name    : ISO Media file produced by Google Inc.\n",
      "Stream mapping:\n",
      "  Stream #0:0 -> #0:0 (copy)\n",
      "Press [q] to stop, [?] for help\n",
      "frame=    0 fps=0.0 q=-1.0 Lsize=       0kB time=00:00:00.00 bitrate=N/A speed=   0x    \n",
      "video:0kB audio:0kB subtitle:0kB other streams:0kB global headers:0kB muxing overhead: unknown\n",
      "ffmpeg version 4.0.2 Copyright (c) 2000-2018 the FFmpeg developers\n",
      "  built with Apple LLVM version 6.1.0 (clang-602.0.53) (based on LLVM 3.6.0svn)\n",
      "  configuration: --prefix=/anaconda3 --disable-doc --disable-openssl --enable-shared --enable-static --extra-cflags='-Wall -g -m64 -pipe -O3 -march=x86-64 -fPIC' --extra-cxxflags='-Wall -g -m64 -pipe -O3 -march=x86-64 -fPIC' --extra-libs='-lpthread -lm -lz' --enable-zlib --enable-pic --enable-pthreads --enable-gpl --enable-version3 --enable-hardcoded-tables --enable-avresample --enable-libfreetype --enable-gnutls --enable-libx264 --enable-libopenh264\n",
      "  libavutil      56. 14.100 / 56. 14.100\n",
      "  libavcodec     58. 18.100 / 58. 18.100\n",
      "  libavformat    58. 12.100 / 58. 12.100\n",
      "  libavdevice    58.  3.100 / 58.  3.100\n",
      "  libavfilter     7. 16.100 /  7. 16.100\n",
      "  libavresample   4.  0.  0 /  4.  0.  0\n",
      "  libswscale      5.  1.100 /  5.  1.100\n",
      "  libswresample   3.  1.100 /  3.  1.100\n",
      "  libpostproc    55.  1.100 / 55.  1.100\n",
      "Input #0, mov,mp4,m4a,3gp,3g2,mj2, from 'qxqu7p8oK5g.mp4':\n",
      "  Metadata:\n",
      "    major_brand     : dash\n",
      "    minor_version   : 0\n",
      "    compatible_brands: iso6avc1mp41\n",
      "    creation_time   : 2019-12-10T13:01:51.000000Z\n",
      "  Duration: 00:05:41.37, start: 0.000000, bitrate: 1266 kb/s\n",
      "    Stream #0:0(und): Video: h264 (Main) (avc1 / 0x31637661), yuv420p(tv, bt709, progressive), 1280x720 [SAR 1:1 DAR 16:9], 39 kb/s, 29.97 fps, 29.97 tbr, 30k tbn, 59.94 tbc (default)\n",
      "    Metadata:\n",
      "      creation_time   : 2019-12-10T13:01:51.000000Z\n",
      "      handler_name    : ISO Media file produced by Google Inc.\n",
      "Output #0, mp4, to '/Users/max/Documents/Insight/TwoStepper/classifier/movie_clips/qxqu7p8oK5g_28_33.mp4':\n",
      "  Metadata:\n",
      "    major_brand     : dash\n",
      "    minor_version   : 0\n",
      "    compatible_brands: iso6avc1mp41\n",
      "    encoder         : Lavf58.12.100\n",
      "    Stream #0:0(und): Video: h264 (Main) (avc1 / 0x31637661), yuv420p(tv, bt709, progressive), 1280x720 [SAR 1:1 DAR 16:9], q=2-31, 39 kb/s, 29.97 fps, 29.97 tbr, 30k tbn, 30k tbc (default)\n",
      "    Metadata:\n",
      "      creation_time   : 2019-12-10T13:01:51.000000Z\n",
      "      handler_name    : ISO Media file produced by Google Inc.\n",
      "Stream mapping:\n",
      "  Stream #0:0 -> #0:0 (copy)\n",
      "Press [q] to stop, [?] for help\n",
      "frame=   31 fps=0.0 q=-1.0 Lsize=     228kB time=00:00:04.99 bitrate= 373.3kbits/s speed= 923x    \n",
      "video:227kB audio:0kB subtitle:0kB other streams:0kB global headers:0kB muxing overhead: 0.490637%\n",
      "ffmpeg version 4.0.2 Copyright (c) 2000-2018 the FFmpeg developers\n",
      "  built with Apple LLVM version 6.1.0 (clang-602.0.53) (based on LLVM 3.6.0svn)\n",
      "  configuration: --prefix=/anaconda3 --disable-doc --disable-openssl --enable-shared --enable-static --extra-cflags='-Wall -g -m64 -pipe -O3 -march=x86-64 -fPIC' --extra-cxxflags='-Wall -g -m64 -pipe -O3 -march=x86-64 -fPIC' --extra-libs='-lpthread -lm -lz' --enable-zlib --enable-pic --enable-pthreads --enable-gpl --enable-version3 --enable-hardcoded-tables --enable-avresample --enable-libfreetype --enable-gnutls --enable-libx264 --enable-libopenh264\n",
      "  libavutil      56. 14.100 / 56. 14.100\n",
      "  libavcodec     58. 18.100 / 58. 18.100\n",
      "  libavformat    58. 12.100 / 58. 12.100\n",
      "  libavdevice    58.  3.100 / 58.  3.100\n",
      "  libavfilter     7. 16.100 /  7. 16.100\n",
      "  libavresample   4.  0.  0 /  4.  0.  0\n",
      "  libswscale      5.  1.100 /  5.  1.100\n",
      "  libswresample   3.  1.100 /  3.  1.100\n",
      "  libpostproc    55.  1.100 / 55.  1.100\n",
      "Input #0, mov,mp4,m4a,3gp,3g2,mj2, from 'qxqu7p8oK5g.mp4':\n",
      "  Metadata:\n",
      "    major_brand     : dash\n",
      "    minor_version   : 0\n",
      "    compatible_brands: iso6avc1mp41\n",
      "    creation_time   : 2019-12-10T13:01:51.000000Z\n",
      "  Duration: 00:05:41.37, start: 0.000000, bitrate: 1266 kb/s\n",
      "    Stream #0:0(und): Video: h264 (Main) (avc1 / 0x31637661), yuv420p(tv, bt709, progressive), 1280x720 [SAR 1:1 DAR 16:9], 39 kb/s, 29.97 fps, 29.97 tbr, 30k tbn, 59.94 tbc (default)\n",
      "    Metadata:\n",
      "      creation_time   : 2019-12-10T13:01:51.000000Z\n",
      "      handler_name    : ISO Media file produced by Google Inc.\n",
      "Output #0, mp4, to '/Users/max/Documents/Insight/TwoStepper/classifier/movie_clips/qxqu7p8oK5g_45_50.mp4':\n",
      "  Metadata:\n",
      "    major_brand     : dash\n",
      "    minor_version   : 0\n",
      "    compatible_brands: iso6avc1mp41\n",
      "    encoder         : Lavf58.12.100\n",
      "    Stream #0:0(und): Video: h264 (Main) (avc1 / 0x31637661), yuv420p(tv, bt709, progressive), 1280x720 [SAR 1:1 DAR 16:9], q=2-31, 39 kb/s, 29.97 fps, 29.97 tbr, 30k tbn, 30k tbc (default)\n",
      "    Metadata:\n",
      "      creation_time   : 2019-12-10T13:01:51.000000Z\n",
      "      handler_name    : ISO Media file produced by Google Inc.\n",
      "Stream mapping:\n",
      "  Stream #0:0 -> #0:0 (copy)\n",
      "Press [q] to stop, [?] for help\n",
      "frame=   60 fps=0.0 q=-1.0 Lsize=     366kB time=00:00:04.98 bitrate= 602.4kbits/s speed= 412x    \n",
      "video:365kB audio:0kB subtitle:0kB other streams:0kB global headers:0kB muxing overhead: 0.352748%\n",
      "ffmpeg version 4.0.2 Copyright (c) 2000-2018 the FFmpeg developers\n",
      "  built with Apple LLVM version 6.1.0 (clang-602.0.53) (based on LLVM 3.6.0svn)\n",
      "  configuration: --prefix=/anaconda3 --disable-doc --disable-openssl --enable-shared --enable-static --extra-cflags='-Wall -g -m64 -pipe -O3 -march=x86-64 -fPIC' --extra-cxxflags='-Wall -g -m64 -pipe -O3 -march=x86-64 -fPIC' --extra-libs='-lpthread -lm -lz' --enable-zlib --enable-pic --enable-pthreads --enable-gpl --enable-version3 --enable-hardcoded-tables --enable-avresample --enable-libfreetype --enable-gnutls --enable-libx264 --enable-libopenh264\n",
      "  libavutil      56. 14.100 / 56. 14.100\n",
      "  libavcodec     58. 18.100 / 58. 18.100\n",
      "  libavformat    58. 12.100 / 58. 12.100\n",
      "  libavdevice    58.  3.100 / 58.  3.100\n",
      "  libavfilter     7. 16.100 /  7. 16.100\n",
      "  libavresample   4.  0.  0 /  4.  0.  0\n",
      "  libswscale      5.  1.100 /  5.  1.100\n",
      "  libswresample   3.  1.100 /  3.  1.100\n",
      "  libpostproc    55.  1.100 / 55.  1.100\n",
      "Input #0, mov,mp4,m4a,3gp,3g2,mj2, from 'qxqu7p8oK5g.mp4':\n",
      "  Metadata:\n",
      "    major_brand     : dash\n",
      "    minor_version   : 0\n",
      "    compatible_brands: iso6avc1mp41\n",
      "    creation_time   : 2019-12-10T13:01:51.000000Z\n",
      "  Duration: 00:05:41.37, start: 0.000000, bitrate: 1266 kb/s\n",
      "    Stream #0:0(und): Video: h264 (Main) (avc1 / 0x31637661), yuv420p(tv, bt709, progressive), 1280x720 [SAR 1:1 DAR 16:9], 39 kb/s, 29.97 fps, 29.97 tbr, 30k tbn, 59.94 tbc (default)\n",
      "    Metadata:\n",
      "      creation_time   : 2019-12-10T13:01:51.000000Z\n",
      "      handler_name    : ISO Media file produced by Google Inc.\n",
      "Output #0, mp4, to '/Users/max/Documents/Insight/TwoStepper/classifier/movie_clips/qxqu7p8oK5g_133_138.mp4':\n",
      "  Metadata:\n",
      "    major_brand     : dash\n",
      "    minor_version   : 0\n",
      "    compatible_brands: iso6avc1mp41\n",
      "    encoder         : Lavf58.12.100\n",
      "    Stream #0:0(und): Video: h264 (Main) (avc1 / 0x31637661), yuv420p(tv, bt709, progressive), 1280x720 [SAR 1:1 DAR 16:9], q=2-31, 39 kb/s, 29.97 fps, 29.97 tbr, 30k tbn, 30k tbc (default)\n",
      "    Metadata:\n",
      "      creation_time   : 2019-12-10T13:01:51.000000Z\n",
      "      handler_name    : ISO Media file produced by Google Inc.\n",
      "Stream mapping:\n",
      "  Stream #0:0 -> #0:0 (copy)\n",
      "Press [q] to stop, [?] for help\n",
      "frame=  137 fps=0.0 q=-1.0 Lsize=     845kB time=00:00:04.97 bitrate=1393.0kbits/s speed= 200x    \n",
      "video:843kB audio:0kB subtitle:0kB other streams:0kB global headers:0kB muxing overhead: 0.227296%\n"
     ]
    },
    {
     "name": "stdout",
     "output_type": "stream",
     "text": [
      "ffmpeg version 4.0.2 Copyright (c) 2000-2018 the FFmpeg developers\n",
      "  built with Apple LLVM version 6.1.0 (clang-602.0.53) (based on LLVM 3.6.0svn)\n",
      "  configuration: --prefix=/anaconda3 --disable-doc --disable-openssl --enable-shared --enable-static --extra-cflags='-Wall -g -m64 -pipe -O3 -march=x86-64 -fPIC' --extra-cxxflags='-Wall -g -m64 -pipe -O3 -march=x86-64 -fPIC' --extra-libs='-lpthread -lm -lz' --enable-zlib --enable-pic --enable-pthreads --enable-gpl --enable-version3 --enable-hardcoded-tables --enable-avresample --enable-libfreetype --enable-gnutls --enable-libx264 --enable-libopenh264\n",
      "  libavutil      56. 14.100 / 56. 14.100\n",
      "  libavcodec     58. 18.100 / 58. 18.100\n",
      "  libavformat    58. 12.100 / 58. 12.100\n",
      "  libavdevice    58.  3.100 / 58.  3.100\n",
      "  libavfilter     7. 16.100 /  7. 16.100\n",
      "  libavresample   4.  0.  0 /  4.  0.  0\n",
      "  libswscale      5.  1.100 /  5.  1.100\n",
      "  libswresample   3.  1.100 /  3.  1.100\n",
      "  libpostproc    55.  1.100 / 55.  1.100\n",
      "Input #0, mov,mp4,m4a,3gp,3g2,mj2, from 'qxqu7p8oK5g.mp4':\n",
      "  Metadata:\n",
      "    major_brand     : dash\n",
      "    minor_version   : 0\n",
      "    compatible_brands: iso6avc1mp41\n",
      "    creation_time   : 2019-12-10T13:01:51.000000Z\n",
      "  Duration: 00:05:41.37, start: 0.000000, bitrate: 1266 kb/s\n",
      "    Stream #0:0(und): Video: h264 (Main) (avc1 / 0x31637661), yuv420p(tv, bt709, progressive), 1280x720 [SAR 1:1 DAR 16:9], 39 kb/s, 29.97 fps, 29.97 tbr, 30k tbn, 59.94 tbc (default)\n",
      "    Metadata:\n",
      "      creation_time   : 2019-12-10T13:01:51.000000Z\n",
      "      handler_name    : ISO Media file produced by Google Inc.\n",
      "Output #0, mp4, to '/Users/max/Documents/Insight/TwoStepper/classifier/movie_clips/qxqu7p8oK5g_148_153.mp4':\n",
      "  Metadata:\n",
      "    major_brand     : dash\n",
      "    minor_version   : 0\n",
      "    compatible_brands: iso6avc1mp41\n",
      "    encoder         : Lavf58.12.100\n",
      "    Stream #0:0(und): Video: h264 (Main) (avc1 / 0x31637661), yuv420p(tv, bt709, progressive), 1280x720 [SAR 1:1 DAR 16:9], q=2-31, 39 kb/s, 29.97 fps, 29.97 tbr, 30k tbn, 30k tbc (default)\n",
      "    Metadata:\n",
      "      creation_time   : 2019-12-10T13:01:51.000000Z\n",
      "      handler_name    : ISO Media file produced by Google Inc.\n",
      "Stream mapping:\n",
      "  Stream #0:0 -> #0:0 (copy)\n",
      "Press [q] to stop, [?] for help\n",
      "frame=  107 fps=0.0 q=-1.0 Lsize=     842kB time=00:00:04.98 bitrate=1382.7kbits/s speed= 207x    \n",
      "video:840kB audio:0kB subtitle:0kB other streams:0kB global headers:0kB muxing overhead: 0.226429%\n",
      "ffmpeg version 4.0.2 Copyright (c) 2000-2018 the FFmpeg developers\n",
      "  built with Apple LLVM version 6.1.0 (clang-602.0.53) (based on LLVM 3.6.0svn)\n",
      "  configuration: --prefix=/anaconda3 --disable-doc --disable-openssl --enable-shared --enable-static --extra-cflags='-Wall -g -m64 -pipe -O3 -march=x86-64 -fPIC' --extra-cxxflags='-Wall -g -m64 -pipe -O3 -march=x86-64 -fPIC' --extra-libs='-lpthread -lm -lz' --enable-zlib --enable-pic --enable-pthreads --enable-gpl --enable-version3 --enable-hardcoded-tables --enable-avresample --enable-libfreetype --enable-gnutls --enable-libx264 --enable-libopenh264\n",
      "  libavutil      56. 14.100 / 56. 14.100\n",
      "  libavcodec     58. 18.100 / 58. 18.100\n",
      "  libavformat    58. 12.100 / 58. 12.100\n",
      "  libavdevice    58.  3.100 / 58.  3.100\n",
      "  libavfilter     7. 16.100 /  7. 16.100\n",
      "  libavresample   4.  0.  0 /  4.  0.  0\n",
      "  libswscale      5.  1.100 /  5.  1.100\n",
      "  libswresample   3.  1.100 /  3.  1.100\n",
      "  libpostproc    55.  1.100 / 55.  1.100\n",
      "Input #0, mov,mp4,m4a,3gp,3g2,mj2, from 'qxqu7p8oK5g.mp4':\n",
      "  Metadata:\n",
      "    major_brand     : dash\n",
      "    minor_version   : 0\n",
      "    compatible_brands: iso6avc1mp41\n",
      "    creation_time   : 2019-12-10T13:01:51.000000Z\n",
      "  Duration: 00:05:41.37, start: 0.000000, bitrate: 1266 kb/s\n",
      "    Stream #0:0(und): Video: h264 (Main) (avc1 / 0x31637661), yuv420p(tv, bt709, progressive), 1280x720 [SAR 1:1 DAR 16:9], 39 kb/s, 29.97 fps, 29.97 tbr, 30k tbn, 59.94 tbc (default)\n",
      "    Metadata:\n",
      "      creation_time   : 2019-12-10T13:01:51.000000Z\n",
      "      handler_name    : ISO Media file produced by Google Inc.\n",
      "Output #0, mp4, to '/Users/max/Documents/Insight/TwoStepper/classifier/movie_clips/qxqu7p8oK5g_175_179.mp4':\n",
      "  Metadata:\n",
      "    major_brand     : dash\n",
      "    minor_version   : 0\n",
      "    compatible_brands: iso6avc1mp41\n",
      "    encoder         : Lavf58.12.100\n",
      "    Stream #0:0(und): Video: h264 (Main) (avc1 / 0x31637661), yuv420p(tv, bt709, progressive), 1280x720 [SAR 1:1 DAR 16:9], q=2-31, 39 kb/s, 29.97 fps, 29.97 tbr, 30k tbn, 30k tbc (default)\n",
      "    Metadata:\n",
      "      creation_time   : 2019-12-10T13:01:51.000000Z\n",
      "      handler_name    : ISO Media file produced by Google Inc.\n",
      "Stream mapping:\n",
      "  Stream #0:0 -> #0:0 (copy)\n",
      "Press [q] to stop, [?] for help\n",
      "frame=   86 fps=0.0 q=-1.0 Lsize=     500kB time=00:00:03.97 bitrate=1030.0kbits/s speed= 144x    \n",
      "video:499kB audio:0kB subtitle:0kB other streams:0kB global headers:0kB muxing overhead: 0.306831%\n",
      "ffmpeg version 4.0.2 Copyright (c) 2000-2018 the FFmpeg developers\n",
      "  built with Apple LLVM version 6.1.0 (clang-602.0.53) (based on LLVM 3.6.0svn)\n",
      "  configuration: --prefix=/anaconda3 --disable-doc --disable-openssl --enable-shared --enable-static --extra-cflags='-Wall -g -m64 -pipe -O3 -march=x86-64 -fPIC' --extra-cxxflags='-Wall -g -m64 -pipe -O3 -march=x86-64 -fPIC' --extra-libs='-lpthread -lm -lz' --enable-zlib --enable-pic --enable-pthreads --enable-gpl --enable-version3 --enable-hardcoded-tables --enable-avresample --enable-libfreetype --enable-gnutls --enable-libx264 --enable-libopenh264\n",
      "  libavutil      56. 14.100 / 56. 14.100\n",
      "  libavcodec     58. 18.100 / 58. 18.100\n",
      "  libavformat    58. 12.100 / 58. 12.100\n",
      "  libavdevice    58.  3.100 / 58.  3.100\n",
      "  libavfilter     7. 16.100 /  7. 16.100\n",
      "  libavresample   4.  0.  0 /  4.  0.  0\n",
      "  libswscale      5.  1.100 /  5.  1.100\n",
      "  libswresample   3.  1.100 /  3.  1.100\n",
      "  libpostproc    55.  1.100 / 55.  1.100\n",
      "Input #0, mov,mp4,m4a,3gp,3g2,mj2, from 'qxqu7p8oK5g.mp4':\n",
      "  Metadata:\n",
      "    major_brand     : dash\n",
      "    minor_version   : 0\n",
      "    compatible_brands: iso6avc1mp41\n",
      "    creation_time   : 2019-12-10T13:01:51.000000Z\n",
      "  Duration: 00:05:41.37, start: 0.000000, bitrate: 1266 kb/s\n",
      "    Stream #0:0(und): Video: h264 (Main) (avc1 / 0x31637661), yuv420p(tv, bt709, progressive), 1280x720 [SAR 1:1 DAR 16:9], 39 kb/s, 29.97 fps, 29.97 tbr, 30k tbn, 59.94 tbc (default)\n",
      "    Metadata:\n",
      "      creation_time   : 2019-12-10T13:01:51.000000Z\n",
      "      handler_name    : ISO Media file produced by Google Inc.\n",
      "Output #0, mp4, to '/Users/max/Documents/Insight/TwoStepper/classifier/movie_clips/qxqu7p8oK5g_203_208.mp4':\n",
      "  Metadata:\n",
      "    major_brand     : dash\n",
      "    minor_version   : 0\n",
      "    compatible_brands: iso6avc1mp41\n",
      "    encoder         : Lavf58.12.100\n",
      "    Stream #0:0(und): Video: h264 (Main) (avc1 / 0x31637661), yuv420p(tv, bt709, progressive), 1280x720 [SAR 1:1 DAR 16:9], q=2-31, 39 kb/s, 29.97 fps, 29.97 tbr, 30k tbn, 30k tbc (default)\n",
      "    Metadata:\n",
      "      creation_time   : 2019-12-10T13:01:51.000000Z\n",
      "      handler_name    : ISO Media file produced by Google Inc.\n",
      "Stream mapping:\n",
      "  Stream #0:0 -> #0:0 (copy)\n",
      "Press [q] to stop, [?] for help\n",
      "frame=    0 fps=0.0 q=-1.0 Lsize=       0kB time=00:00:00.00 bitrate=N/A speed=   0x    \n",
      "video:0kB audio:0kB subtitle:0kB other streams:0kB global headers:0kB muxing overhead: unknown\n",
      "ffmpeg version 4.0.2 Copyright (c) 2000-2018 the FFmpeg developers\n",
      "  built with Apple LLVM version 6.1.0 (clang-602.0.53) (based on LLVM 3.6.0svn)\n",
      "  configuration: --prefix=/anaconda3 --disable-doc --disable-openssl --enable-shared --enable-static --extra-cflags='-Wall -g -m64 -pipe -O3 -march=x86-64 -fPIC' --extra-cxxflags='-Wall -g -m64 -pipe -O3 -march=x86-64 -fPIC' --extra-libs='-lpthread -lm -lz' --enable-zlib --enable-pic --enable-pthreads --enable-gpl --enable-version3 --enable-hardcoded-tables --enable-avresample --enable-libfreetype --enable-gnutls --enable-libx264 --enable-libopenh264\n",
      "  libavutil      56. 14.100 / 56. 14.100\n",
      "  libavcodec     58. 18.100 / 58. 18.100\n",
      "  libavformat    58. 12.100 / 58. 12.100\n",
      "  libavdevice    58.  3.100 / 58.  3.100\n",
      "  libavfilter     7. 16.100 /  7. 16.100\n",
      "  libavresample   4.  0.  0 /  4.  0.  0\n",
      "  libswscale      5.  1.100 /  5.  1.100\n",
      "  libswresample   3.  1.100 /  3.  1.100\n",
      "  libpostproc    55.  1.100 / 55.  1.100\n",
      "Input #0, mov,mp4,m4a,3gp,3g2,mj2, from 'qxqu7p8oK5g.mp4':\n",
      "  Metadata:\n",
      "    major_brand     : dash\n",
      "    minor_version   : 0\n",
      "    compatible_brands: iso6avc1mp41\n",
      "    creation_time   : 2019-12-10T13:01:51.000000Z\n",
      "  Duration: 00:05:41.37, start: 0.000000, bitrate: 1266 kb/s\n",
      "    Stream #0:0(und): Video: h264 (Main) (avc1 / 0x31637661), yuv420p(tv, bt709, progressive), 1280x720 [SAR 1:1 DAR 16:9], 39 kb/s, 29.97 fps, 29.97 tbr, 30k tbn, 59.94 tbc (default)\n",
      "    Metadata:\n",
      "      creation_time   : 2019-12-10T13:01:51.000000Z\n",
      "      handler_name    : ISO Media file produced by Google Inc.\n",
      "Output #0, mp4, to '/Users/max/Documents/Insight/TwoStepper/classifier/movie_clips/qxqu7p8oK5g_235_239.mp4':\n",
      "  Metadata:\n",
      "    major_brand     : dash\n",
      "    minor_version   : 0\n",
      "    compatible_brands: iso6avc1mp41\n",
      "    encoder         : Lavf58.12.100\n",
      "    Stream #0:0(und): Video: h264 (Main) (avc1 / 0x31637661), yuv420p(tv, bt709, progressive), 1280x720 [SAR 1:1 DAR 16:9], q=2-31, 39 kb/s, 29.97 fps, 29.97 tbr, 30k tbn, 30k tbc (default)\n",
      "    Metadata:\n",
      "      creation_time   : 2019-12-10T13:01:51.000000Z\n",
      "      handler_name    : ISO Media file produced by Google Inc.\n",
      "Stream mapping:\n",
      "  Stream #0:0 -> #0:0 (copy)\n",
      "Press [q] to stop, [?] for help\n"
     ]
    },
    {
     "name": "stdout",
     "output_type": "stream",
     "text": [
      "frame=    0 fps=0.0 q=-1.0 Lsize=       0kB time=00:00:00.00 bitrate=N/A speed=   0x    \n",
      "video:0kB audio:0kB subtitle:0kB other streams:0kB global headers:0kB muxing overhead: unknown\n",
      "ffmpeg version 4.0.2 Copyright (c) 2000-2018 the FFmpeg developers\n",
      "  built with Apple LLVM version 6.1.0 (clang-602.0.53) (based on LLVM 3.6.0svn)\n",
      "  configuration: --prefix=/anaconda3 --disable-doc --disable-openssl --enable-shared --enable-static --extra-cflags='-Wall -g -m64 -pipe -O3 -march=x86-64 -fPIC' --extra-cxxflags='-Wall -g -m64 -pipe -O3 -march=x86-64 -fPIC' --extra-libs='-lpthread -lm -lz' --enable-zlib --enable-pic --enable-pthreads --enable-gpl --enable-version3 --enable-hardcoded-tables --enable-avresample --enable-libfreetype --enable-gnutls --enable-libx264 --enable-libopenh264\n",
      "  libavutil      56. 14.100 / 56. 14.100\n",
      "  libavcodec     58. 18.100 / 58. 18.100\n",
      "  libavformat    58. 12.100 / 58. 12.100\n",
      "  libavdevice    58.  3.100 / 58.  3.100\n",
      "  libavfilter     7. 16.100 /  7. 16.100\n",
      "  libavresample   4.  0.  0 /  4.  0.  0\n",
      "  libswscale      5.  1.100 /  5.  1.100\n",
      "  libswresample   3.  1.100 /  3.  1.100\n",
      "  libpostproc    55.  1.100 / 55.  1.100\n",
      "Input #0, mov,mp4,m4a,3gp,3g2,mj2, from 'qxqu7p8oK5g.mp4':\n",
      "  Metadata:\n",
      "    major_brand     : dash\n",
      "    minor_version   : 0\n",
      "    compatible_brands: iso6avc1mp41\n",
      "    creation_time   : 2019-12-10T13:01:51.000000Z\n",
      "  Duration: 00:05:41.37, start: 0.000000, bitrate: 1266 kb/s\n",
      "    Stream #0:0(und): Video: h264 (Main) (avc1 / 0x31637661), yuv420p(tv, bt709, progressive), 1280x720 [SAR 1:1 DAR 16:9], 39 kb/s, 29.97 fps, 29.97 tbr, 30k tbn, 59.94 tbc (default)\n",
      "    Metadata:\n",
      "      creation_time   : 2019-12-10T13:01:51.000000Z\n",
      "      handler_name    : ISO Media file produced by Google Inc.\n",
      "Output #0, mp4, to '/Users/max/Documents/Insight/TwoStepper/classifier/movie_clips/qxqu7p8oK5g_260_264.mp4':\n",
      "  Metadata:\n",
      "    major_brand     : dash\n",
      "    minor_version   : 0\n",
      "    compatible_brands: iso6avc1mp41\n",
      "    encoder         : Lavf58.12.100\n",
      "    Stream #0:0(und): Video: h264 (Main) (avc1 / 0x31637661), yuv420p(tv, bt709, progressive), 1280x720 [SAR 1:1 DAR 16:9], q=2-31, 39 kb/s, 29.97 fps, 29.97 tbr, 30k tbn, 30k tbc (default)\n",
      "    Metadata:\n",
      "      creation_time   : 2019-12-10T13:01:51.000000Z\n",
      "      handler_name    : ISO Media file produced by Google Inc.\n",
      "Stream mapping:\n",
      "  Stream #0:0 -> #0:0 (copy)\n",
      "Press [q] to stop, [?] for help\n",
      "frame=   74 fps=0.0 q=-1.0 Lsize=     572kB time=00:00:03.99 bitrate=1171.8kbits/s speed=86.9x    \n",
      "video:570kB audio:0kB subtitle:0kB other streams:0kB global headers:0kB muxing overhead: 0.288980%\n",
      "ffmpeg version 4.0.2 Copyright (c) 2000-2018 the FFmpeg developers\n",
      "  built with Apple LLVM version 6.1.0 (clang-602.0.53) (based on LLVM 3.6.0svn)\n",
      "  configuration: --prefix=/anaconda3 --disable-doc --disable-openssl --enable-shared --enable-static --extra-cflags='-Wall -g -m64 -pipe -O3 -march=x86-64 -fPIC' --extra-cxxflags='-Wall -g -m64 -pipe -O3 -march=x86-64 -fPIC' --extra-libs='-lpthread -lm -lz' --enable-zlib --enable-pic --enable-pthreads --enable-gpl --enable-version3 --enable-hardcoded-tables --enable-avresample --enable-libfreetype --enable-gnutls --enable-libx264 --enable-libopenh264\n",
      "  libavutil      56. 14.100 / 56. 14.100\n",
      "  libavcodec     58. 18.100 / 58. 18.100\n",
      "  libavformat    58. 12.100 / 58. 12.100\n",
      "  libavdevice    58.  3.100 / 58.  3.100\n",
      "  libavfilter     7. 16.100 /  7. 16.100\n",
      "  libavresample   4.  0.  0 /  4.  0.  0\n",
      "  libswscale      5.  1.100 /  5.  1.100\n",
      "  libswresample   3.  1.100 /  3.  1.100\n",
      "  libpostproc    55.  1.100 / 55.  1.100\n",
      "Input #0, mov,mp4,m4a,3gp,3g2,mj2, from 'JKwvq6IJqNU.mp4':\n",
      "  Metadata:\n",
      "    major_brand     : dash\n",
      "    minor_version   : 0\n",
      "    compatible_brands: iso6avc1mp41\n",
      "    creation_time   : 2017-10-27T13:26:31.000000Z\n",
      "  Duration: 00:02:17.53, start: 0.000000, bitrate: 663 kb/s\n",
      "    Stream #0:0(und): Video: h264 (Main) (avc1 / 0x31637661), yuv420p(tv, bt709, progressive), 1280x720 [SAR 1:1 DAR 16:9], 29 kb/s, 30 fps, 30 tbr, 90k tbn, 60 tbc (default)\n",
      "    Metadata:\n",
      "      creation_time   : 2017-10-27T13:26:31.000000Z\n",
      "      handler_name    : VideoHandler\n",
      "Output #0, mp4, to '/Users/max/Documents/Insight/TwoStepper/classifier/movie_clips/JKwvq6IJqNU_40_46.mp4':\n",
      "  Metadata:\n",
      "    major_brand     : dash\n",
      "    minor_version   : 0\n",
      "    compatible_brands: iso6avc1mp41\n",
      "    encoder         : Lavf58.12.100\n",
      "    Stream #0:0(und): Video: h264 (Main) (avc1 / 0x31637661), yuv420p(tv, bt709, progressive), 1280x720 [SAR 1:1 DAR 16:9], q=2-31, 29 kb/s, 30 fps, 30 tbr, 90k tbn, 90k tbc (default)\n",
      "    Metadata:\n",
      "      creation_time   : 2017-10-27T13:26:31.000000Z\n",
      "      handler_name    : VideoHandler\n",
      "Stream mapping:\n",
      "  Stream #0:0 -> #0:0 (copy)\n",
      "Press [q] to stop, [?] for help\n",
      "frame=  133 fps=0.0 q=-1.0 Lsize=     291kB time=00:00:05.96 bitrate= 399.9kbits/s speed= 668x    \n",
      "video:289kB audio:0kB subtitle:0kB other streams:0kB global headers:0kB muxing overhead: 0.787944%\n",
      "ffmpeg version 4.0.2 Copyright (c) 2000-2018 the FFmpeg developers\n",
      "  built with Apple LLVM version 6.1.0 (clang-602.0.53) (based on LLVM 3.6.0svn)\n",
      "  configuration: --prefix=/anaconda3 --disable-doc --disable-openssl --enable-shared --enable-static --extra-cflags='-Wall -g -m64 -pipe -O3 -march=x86-64 -fPIC' --extra-cxxflags='-Wall -g -m64 -pipe -O3 -march=x86-64 -fPIC' --extra-libs='-lpthread -lm -lz' --enable-zlib --enable-pic --enable-pthreads --enable-gpl --enable-version3 --enable-hardcoded-tables --enable-avresample --enable-libfreetype --enable-gnutls --enable-libx264 --enable-libopenh264\n",
      "  libavutil      56. 14.100 / 56. 14.100\n",
      "  libavcodec     58. 18.100 / 58. 18.100\n",
      "  libavformat    58. 12.100 / 58. 12.100\n",
      "  libavdevice    58.  3.100 / 58.  3.100\n",
      "  libavfilter     7. 16.100 /  7. 16.100\n",
      "  libavresample   4.  0.  0 /  4.  0.  0\n",
      "  libswscale      5.  1.100 /  5.  1.100\n",
      "  libswresample   3.  1.100 /  3.  1.100\n",
      "  libpostproc    55.  1.100 / 55.  1.100\n",
      "Input #0, mov,mp4,m4a,3gp,3g2,mj2, from 'JKwvq6IJqNU.mp4':\n",
      "  Metadata:\n",
      "    major_brand     : dash\n",
      "    minor_version   : 0\n",
      "    compatible_brands: iso6avc1mp41\n",
      "    creation_time   : 2017-10-27T13:26:31.000000Z\n",
      "  Duration: 00:02:17.53, start: 0.000000, bitrate: 663 kb/s\n",
      "    Stream #0:0(und): Video: h264 (Main) (avc1 / 0x31637661), yuv420p(tv, bt709, progressive), 1280x720 [SAR 1:1 DAR 16:9], 29 kb/s, 30 fps, 30 tbr, 90k tbn, 60 tbc (default)\n",
      "    Metadata:\n",
      "      creation_time   : 2017-10-27T13:26:31.000000Z\n",
      "      handler_name    : VideoHandler\n",
      "Output #0, mp4, to '/Users/max/Documents/Insight/TwoStepper/classifier/movie_clips/JKwvq6IJqNU_61_69.mp4':\n",
      "  Metadata:\n",
      "    major_brand     : dash\n",
      "    minor_version   : 0\n",
      "    compatible_brands: iso6avc1mp41\n",
      "    encoder         : Lavf58.12.100\n",
      "    Stream #0:0(und): Video: h264 (Main) (avc1 / 0x31637661), yuv420p(tv, bt709, progressive), 1280x720 [SAR 1:1 DAR 16:9], q=2-31, 29 kb/s, 30 fps, 30 tbr, 90k tbn, 90k tbc (default)\n",
      "    Metadata:\n",
      "      creation_time   : 2017-10-27T13:26:31.000000Z\n",
      "      handler_name    : VideoHandler\n",
      "Stream mapping:\n",
      "  Stream #0:0 -> #0:0 (copy)\n",
      "Press [q] to stop, [?] for help\n",
      "frame=  183 fps=0.0 q=-1.0 Lsize=     584kB time=00:00:07.96 bitrate= 600.8kbits/s speed= 646x    \n",
      "video:582kB audio:0kB subtitle:0kB other streams:0kB global headers:0kB muxing overhead: 0.462085%\n",
      "ffmpeg version 4.0.2 Copyright (c) 2000-2018 the FFmpeg developers\n",
      "  built with Apple LLVM version 6.1.0 (clang-602.0.53) (based on LLVM 3.6.0svn)\n",
      "  configuration: --prefix=/anaconda3 --disable-doc --disable-openssl --enable-shared --enable-static --extra-cflags='-Wall -g -m64 -pipe -O3 -march=x86-64 -fPIC' --extra-cxxflags='-Wall -g -m64 -pipe -O3 -march=x86-64 -fPIC' --extra-libs='-lpthread -lm -lz' --enable-zlib --enable-pic --enable-pthreads --enable-gpl --enable-version3 --enable-hardcoded-tables --enable-avresample --enable-libfreetype --enable-gnutls --enable-libx264 --enable-libopenh264\n",
      "  libavutil      56. 14.100 / 56. 14.100\n",
      "  libavcodec     58. 18.100 / 58. 18.100\n",
      "  libavformat    58. 12.100 / 58. 12.100\n",
      "  libavdevice    58.  3.100 / 58.  3.100\n",
      "  libavfilter     7. 16.100 /  7. 16.100\n",
      "  libavresample   4.  0.  0 /  4.  0.  0\n",
      "  libswscale      5.  1.100 /  5.  1.100\n",
      "  libswresample   3.  1.100 /  3.  1.100\n",
      "  libpostproc    55.  1.100 / 55.  1.100\n",
      "Input #0, mov,mp4,m4a,3gp,3g2,mj2, from 'ND1HsSMSKpk.mp4':\n",
      "  Metadata:\n",
      "    major_brand     : dash\n",
      "    minor_version   : 0\n",
      "    compatible_brands: iso6avc1mp41\n",
      "    creation_time   : 2019-08-13T17:58:59.000000Z\n",
      "  Duration: 00:17:46.07, start: 0.000000, bitrate: 4350 kb/s\n",
      "    Stream #0:0(und): Video: h264 (High) (avc1 / 0x31637661), yuv420p(tv, bt709, progressive), 1920x1080 [SAR 1:1 DAR 16:9], 21 kb/s, 30 fps, 30 tbr, 15360 tbn, 60 tbc (default)\n",
      "    Metadata:\n",
      "      creation_time   : 2019-08-13T17:58:59.000000Z\n",
      "      handler_name    : ISO Media file produced by Google Inc.\n",
      "Output #0, mp4, to '/Users/max/Documents/Insight/TwoStepper/classifier/movie_clips/ND1HsSMSKpk_89_92.mp4':\n",
      "  Metadata:\n",
      "    major_brand     : dash\n",
      "    minor_version   : 0\n",
      "    compatible_brands: iso6avc1mp41\n",
      "    encoder         : Lavf58.12.100\n",
      "    Stream #0:0(und): Video: h264 (High) (avc1 / 0x31637661), yuv420p(tv, bt709, progressive), 1920x1080 [SAR 1:1 DAR 16:9], q=2-31, 21 kb/s, 30 fps, 30 tbr, 15360 tbn, 15360 tbc (default)\n",
      "    Metadata:\n",
      "      creation_time   : 2019-08-13T17:58:59.000000Z\n",
      "      handler_name    : ISO Media file produced by Google Inc.\n",
      "Stream mapping:\n",
      "  Stream #0:0 -> #0:0 (copy)\n",
      "Press [q] to stop, [?] for help\n"
     ]
    },
    {
     "name": "stdout",
     "output_type": "stream",
     "text": [
      "frame=   41 fps=0.0 q=-1.0 Lsize=    1076kB time=00:00:02.96 bitrate=2972.0kbits/s speed=76.6x    \n",
      "video:1075kB audio:0kB subtitle:0kB other streams:0kB global headers:0kB muxing overhead: 0.114637%\n",
      "ffmpeg version 4.0.2 Copyright (c) 2000-2018 the FFmpeg developers\n",
      "  built with Apple LLVM version 6.1.0 (clang-602.0.53) (based on LLVM 3.6.0svn)\n",
      "  configuration: --prefix=/anaconda3 --disable-doc --disable-openssl --enable-shared --enable-static --extra-cflags='-Wall -g -m64 -pipe -O3 -march=x86-64 -fPIC' --extra-cxxflags='-Wall -g -m64 -pipe -O3 -march=x86-64 -fPIC' --extra-libs='-lpthread -lm -lz' --enable-zlib --enable-pic --enable-pthreads --enable-gpl --enable-version3 --enable-hardcoded-tables --enable-avresample --enable-libfreetype --enable-gnutls --enable-libx264 --enable-libopenh264\n",
      "  libavutil      56. 14.100 / 56. 14.100\n",
      "  libavcodec     58. 18.100 / 58. 18.100\n",
      "  libavformat    58. 12.100 / 58. 12.100\n",
      "  libavdevice    58.  3.100 / 58.  3.100\n",
      "  libavfilter     7. 16.100 /  7. 16.100\n",
      "  libavresample   4.  0.  0 /  4.  0.  0\n",
      "  libswscale      5.  1.100 /  5.  1.100\n",
      "  libswresample   3.  1.100 /  3.  1.100\n",
      "  libpostproc    55.  1.100 / 55.  1.100\n",
      "Input #0, mov,mp4,m4a,3gp,3g2,mj2, from 'ND1HsSMSKpk.mp4':\n",
      "  Metadata:\n",
      "    major_brand     : dash\n",
      "    minor_version   : 0\n",
      "    compatible_brands: iso6avc1mp41\n",
      "    creation_time   : 2019-08-13T17:58:59.000000Z\n",
      "  Duration: 00:17:46.07, start: 0.000000, bitrate: 4350 kb/s\n",
      "    Stream #0:0(und): Video: h264 (High) (avc1 / 0x31637661), yuv420p(tv, bt709, progressive), 1920x1080 [SAR 1:1 DAR 16:9], 21 kb/s, 30 fps, 30 tbr, 15360 tbn, 60 tbc (default)\n",
      "    Metadata:\n",
      "      creation_time   : 2019-08-13T17:58:59.000000Z\n",
      "      handler_name    : ISO Media file produced by Google Inc.\n",
      "Output #0, mp4, to '/Users/max/Documents/Insight/TwoStepper/classifier/movie_clips/ND1HsSMSKpk_110_115.mp4':\n",
      "  Metadata:\n",
      "    major_brand     : dash\n",
      "    minor_version   : 0\n",
      "    compatible_brands: iso6avc1mp41\n",
      "    encoder         : Lavf58.12.100\n",
      "    Stream #0:0(und): Video: h264 (High) (avc1 / 0x31637661), yuv420p(tv, bt709, progressive), 1920x1080 [SAR 1:1 DAR 16:9], q=2-31, 21 kb/s, 30 fps, 30 tbr, 15360 tbn, 15360 tbc (default)\n",
      "    Metadata:\n",
      "      creation_time   : 2019-08-13T17:58:59.000000Z\n",
      "      handler_name    : ISO Media file produced by Google Inc.\n",
      "Stream mapping:\n",
      "  Stream #0:0 -> #0:0 (copy)\n",
      "Press [q] to stop, [?] for help\n",
      "frame=   91 fps=0.0 q=-1.0 Lsize=    1808kB time=00:00:04.96 bitrate=2981.7kbits/s speed= 159x    \n",
      "video:1806kB audio:0kB subtitle:0kB other streams:0kB global headers:0kB muxing overhead: 0.100254%\n",
      "ffmpeg version 4.0.2 Copyright (c) 2000-2018 the FFmpeg developers\n",
      "  built with Apple LLVM version 6.1.0 (clang-602.0.53) (based on LLVM 3.6.0svn)\n",
      "  configuration: --prefix=/anaconda3 --disable-doc --disable-openssl --enable-shared --enable-static --extra-cflags='-Wall -g -m64 -pipe -O3 -march=x86-64 -fPIC' --extra-cxxflags='-Wall -g -m64 -pipe -O3 -march=x86-64 -fPIC' --extra-libs='-lpthread -lm -lz' --enable-zlib --enable-pic --enable-pthreads --enable-gpl --enable-version3 --enable-hardcoded-tables --enable-avresample --enable-libfreetype --enable-gnutls --enable-libx264 --enable-libopenh264\n",
      "  libavutil      56. 14.100 / 56. 14.100\n",
      "  libavcodec     58. 18.100 / 58. 18.100\n",
      "  libavformat    58. 12.100 / 58. 12.100\n",
      "  libavdevice    58.  3.100 / 58.  3.100\n",
      "  libavfilter     7. 16.100 /  7. 16.100\n",
      "  libavresample   4.  0.  0 /  4.  0.  0\n",
      "  libswscale      5.  1.100 /  5.  1.100\n",
      "  libswresample   3.  1.100 /  3.  1.100\n",
      "  libpostproc    55.  1.100 / 55.  1.100\n",
      "Input #0, mov,mp4,m4a,3gp,3g2,mj2, from 'ND1HsSMSKpk.mp4':\n",
      "  Metadata:\n",
      "    major_brand     : dash\n",
      "    minor_version   : 0\n",
      "    compatible_brands: iso6avc1mp41\n",
      "    creation_time   : 2019-08-13T17:58:59.000000Z\n",
      "  Duration: 00:17:46.07, start: 0.000000, bitrate: 4350 kb/s\n",
      "    Stream #0:0(und): Video: h264 (High) (avc1 / 0x31637661), yuv420p(tv, bt709, progressive), 1920x1080 [SAR 1:1 DAR 16:9], 21 kb/s, 30 fps, 30 tbr, 15360 tbn, 60 tbc (default)\n",
      "    Metadata:\n",
      "      creation_time   : 2019-08-13T17:58:59.000000Z\n",
      "      handler_name    : ISO Media file produced by Google Inc.\n",
      "Output #0, mp4, to '/Users/max/Documents/Insight/TwoStepper/classifier/movie_clips/ND1HsSMSKpk_162_165.mp4':\n",
      "  Metadata:\n",
      "    major_brand     : dash\n",
      "    minor_version   : 0\n",
      "    compatible_brands: iso6avc1mp41\n",
      "    encoder         : Lavf58.12.100\n",
      "    Stream #0:0(und): Video: h264 (High) (avc1 / 0x31637661), yuv420p(tv, bt709, progressive), 1920x1080 [SAR 1:1 DAR 16:9], q=2-31, 21 kb/s, 30 fps, 30 tbr, 15360 tbn, 15360 tbc (default)\n",
      "    Metadata:\n",
      "      creation_time   : 2019-08-13T17:58:59.000000Z\n",
      "      handler_name    : ISO Media file produced by Google Inc.\n",
      "Stream mapping:\n",
      "  Stream #0:0 -> #0:0 (copy)\n",
      "Press [q] to stop, [?] for help\n",
      "frame=    0 fps=0.0 q=-1.0 Lsize=       0kB time=00:00:00.00 bitrate=N/A speed=   0x    \n",
      "video:0kB audio:0kB subtitle:0kB other streams:0kB global headers:0kB muxing overhead: unknown\n",
      "ffmpeg version 4.0.2 Copyright (c) 2000-2018 the FFmpeg developers\n",
      "  built with Apple LLVM version 6.1.0 (clang-602.0.53) (based on LLVM 3.6.0svn)\n",
      "  configuration: --prefix=/anaconda3 --disable-doc --disable-openssl --enable-shared --enable-static --extra-cflags='-Wall -g -m64 -pipe -O3 -march=x86-64 -fPIC' --extra-cxxflags='-Wall -g -m64 -pipe -O3 -march=x86-64 -fPIC' --extra-libs='-lpthread -lm -lz' --enable-zlib --enable-pic --enable-pthreads --enable-gpl --enable-version3 --enable-hardcoded-tables --enable-avresample --enable-libfreetype --enable-gnutls --enable-libx264 --enable-libopenh264\n",
      "  libavutil      56. 14.100 / 56. 14.100\n",
      "  libavcodec     58. 18.100 / 58. 18.100\n",
      "  libavformat    58. 12.100 / 58. 12.100\n",
      "  libavdevice    58.  3.100 / 58.  3.100\n",
      "  libavfilter     7. 16.100 /  7. 16.100\n",
      "  libavresample   4.  0.  0 /  4.  0.  0\n",
      "  libswscale      5.  1.100 /  5.  1.100\n",
      "  libswresample   3.  1.100 /  3.  1.100\n",
      "  libpostproc    55.  1.100 / 55.  1.100\n",
      "Input #0, mov,mp4,m4a,3gp,3g2,mj2, from 'ND1HsSMSKpk.mp4':\n",
      "  Metadata:\n",
      "    major_brand     : dash\n",
      "    minor_version   : 0\n",
      "    compatible_brands: iso6avc1mp41\n",
      "    creation_time   : 2019-08-13T17:58:59.000000Z\n",
      "  Duration: 00:17:46.07, start: 0.000000, bitrate: 4350 kb/s\n",
      "    Stream #0:0(und): Video: h264 (High) (avc1 / 0x31637661), yuv420p(tv, bt709, progressive), 1920x1080 [SAR 1:1 DAR 16:9], 21 kb/s, 30 fps, 30 tbr, 15360 tbn, 60 tbc (default)\n",
      "    Metadata:\n",
      "      creation_time   : 2019-08-13T17:58:59.000000Z\n",
      "      handler_name    : ISO Media file produced by Google Inc.\n",
      "Output #0, mp4, to '/Users/max/Documents/Insight/TwoStepper/classifier/movie_clips/ND1HsSMSKpk_199_206.mp4':\n",
      "  Metadata:\n",
      "    major_brand     : dash\n",
      "    minor_version   : 0\n",
      "    compatible_brands: iso6avc1mp41\n",
      "    encoder         : Lavf58.12.100\n",
      "    Stream #0:0(und): Video: h264 (High) (avc1 / 0x31637661), yuv420p(tv, bt709, progressive), 1920x1080 [SAR 1:1 DAR 16:9], q=2-31, 21 kb/s, 30 fps, 30 tbr, 15360 tbn, 15360 tbc (default)\n",
      "    Metadata:\n",
      "      creation_time   : 2019-08-13T17:58:59.000000Z\n",
      "      handler_name    : ISO Media file produced by Google Inc.\n",
      "Stream mapping:\n",
      "  Stream #0:0 -> #0:0 (copy)\n",
      "Press [q] to stop, [?] for help\n",
      "frame=  101 fps=0.0 q=-1.0 Lsize=    1765kB time=00:00:06.96 bitrate=2076.0kbits/s speed=  99x    \n",
      "video:1764kB audio:0kB subtitle:0kB other streams:0kB global headers:0kB muxing overhead: 0.094235%\n",
      "ffmpeg version 4.0.2 Copyright (c) 2000-2018 the FFmpeg developers\n",
      "  built with Apple LLVM version 6.1.0 (clang-602.0.53) (based on LLVM 3.6.0svn)\n",
      "  configuration: --prefix=/anaconda3 --disable-doc --disable-openssl --enable-shared --enable-static --extra-cflags='-Wall -g -m64 -pipe -O3 -march=x86-64 -fPIC' --extra-cxxflags='-Wall -g -m64 -pipe -O3 -march=x86-64 -fPIC' --extra-libs='-lpthread -lm -lz' --enable-zlib --enable-pic --enable-pthreads --enable-gpl --enable-version3 --enable-hardcoded-tables --enable-avresample --enable-libfreetype --enable-gnutls --enable-libx264 --enable-libopenh264\n",
      "  libavutil      56. 14.100 / 56. 14.100\n",
      "  libavcodec     58. 18.100 / 58. 18.100\n",
      "  libavformat    58. 12.100 / 58. 12.100\n",
      "  libavdevice    58.  3.100 / 58.  3.100\n",
      "  libavfilter     7. 16.100 /  7. 16.100\n",
      "  libavresample   4.  0.  0 /  4.  0.  0\n",
      "  libswscale      5.  1.100 /  5.  1.100\n",
      "  libswresample   3.  1.100 /  3.  1.100\n",
      "  libpostproc    55.  1.100 / 55.  1.100\n",
      "Input #0, mov,mp4,m4a,3gp,3g2,mj2, from 'ND1HsSMSKpk.mp4':\n",
      "  Metadata:\n",
      "    major_brand     : dash\n",
      "    minor_version   : 0\n",
      "    compatible_brands: iso6avc1mp41\n",
      "    creation_time   : 2019-08-13T17:58:59.000000Z\n",
      "  Duration: 00:17:46.07, start: 0.000000, bitrate: 4350 kb/s\n",
      "    Stream #0:0(und): Video: h264 (High) (avc1 / 0x31637661), yuv420p(tv, bt709, progressive), 1920x1080 [SAR 1:1 DAR 16:9], 21 kb/s, 30 fps, 30 tbr, 15360 tbn, 60 tbc (default)\n",
      "    Metadata:\n",
      "      creation_time   : 2019-08-13T17:58:59.000000Z\n",
      "      handler_name    : ISO Media file produced by Google Inc.\n",
      "Output #0, mp4, to '/Users/max/Documents/Insight/TwoStepper/classifier/movie_clips/ND1HsSMSKpk_546_557.mp4':\n",
      "  Metadata:\n",
      "    major_brand     : dash\n",
      "    minor_version   : 0\n",
      "    compatible_brands: iso6avc1mp41\n",
      "    encoder         : Lavf58.12.100\n",
      "    Stream #0:0(und): Video: h264 (High) (avc1 / 0x31637661), yuv420p(tv, bt709, progressive), 1920x1080 [SAR 1:1 DAR 16:9], q=2-31, 21 kb/s, 30 fps, 30 tbr, 15360 tbn, 15360 tbc (default)\n",
      "    Metadata:\n",
      "      creation_time   : 2019-08-13T17:58:59.000000Z\n",
      "      handler_name    : ISO Media file produced by Google Inc.\n",
      "Stream mapping:\n",
      "  Stream #0:0 -> #0:0 (copy)\n",
      "Press [q] to stop, [?] for help\n"
     ]
    },
    {
     "name": "stdout",
     "output_type": "stream",
     "text": [
      "frame=  231 fps=0.0 q=-1.0 Lsize=    4495kB time=00:00:10.96 bitrate=3357.5kbits/s speed=54.9x    \n",
      "video:4492kB audio:0kB subtitle:0kB other streams:0kB global headers:0kB muxing overhead: 0.064395%\n",
      "ffmpeg version 4.0.2 Copyright (c) 2000-2018 the FFmpeg developers\n",
      "  built with Apple LLVM version 6.1.0 (clang-602.0.53) (based on LLVM 3.6.0svn)\n",
      "  configuration: --prefix=/anaconda3 --disable-doc --disable-openssl --enable-shared --enable-static --extra-cflags='-Wall -g -m64 -pipe -O3 -march=x86-64 -fPIC' --extra-cxxflags='-Wall -g -m64 -pipe -O3 -march=x86-64 -fPIC' --extra-libs='-lpthread -lm -lz' --enable-zlib --enable-pic --enable-pthreads --enable-gpl --enable-version3 --enable-hardcoded-tables --enable-avresample --enable-libfreetype --enable-gnutls --enable-libx264 --enable-libopenh264\n",
      "  libavutil      56. 14.100 / 56. 14.100\n",
      "  libavcodec     58. 18.100 / 58. 18.100\n",
      "  libavformat    58. 12.100 / 58. 12.100\n",
      "  libavdevice    58.  3.100 / 58.  3.100\n",
      "  libavfilter     7. 16.100 /  7. 16.100\n",
      "  libavresample   4.  0.  0 /  4.  0.  0\n",
      "  libswscale      5.  1.100 /  5.  1.100\n",
      "  libswresample   3.  1.100 /  3.  1.100\n",
      "  libpostproc    55.  1.100 / 55.  1.100\n",
      "Input #0, mov,mp4,m4a,3gp,3g2,mj2, from 'ND1HsSMSKpk.mp4':\n",
      "  Metadata:\n",
      "    major_brand     : dash\n",
      "    minor_version   : 0\n",
      "    compatible_brands: iso6avc1mp41\n",
      "    creation_time   : 2019-08-13T17:58:59.000000Z\n",
      "  Duration: 00:17:46.07, start: 0.000000, bitrate: 4350 kb/s\n",
      "    Stream #0:0(und): Video: h264 (High) (avc1 / 0x31637661), yuv420p(tv, bt709, progressive), 1920x1080 [SAR 1:1 DAR 16:9], 21 kb/s, 30 fps, 30 tbr, 15360 tbn, 60 tbc (default)\n",
      "    Metadata:\n",
      "      creation_time   : 2019-08-13T17:58:59.000000Z\n",
      "      handler_name    : ISO Media file produced by Google Inc.\n",
      "Output #0, mp4, to '/Users/max/Documents/Insight/TwoStepper/classifier/movie_clips/ND1HsSMSKpk_546_550.mp4':\n",
      "  Metadata:\n",
      "    major_brand     : dash\n",
      "    minor_version   : 0\n",
      "    compatible_brands: iso6avc1mp41\n",
      "    encoder         : Lavf58.12.100\n",
      "    Stream #0:0(und): Video: h264 (High) (avc1 / 0x31637661), yuv420p(tv, bt709, progressive), 1920x1080 [SAR 1:1 DAR 16:9], q=2-31, 21 kb/s, 30 fps, 30 tbr, 15360 tbn, 15360 tbc (default)\n",
      "    Metadata:\n",
      "      creation_time   : 2019-08-13T17:58:59.000000Z\n",
      "      handler_name    : ISO Media file produced by Google Inc.\n",
      "Stream mapping:\n",
      "  Stream #0:0 -> #0:0 (copy)\n",
      "Press [q] to stop, [?] for help\n",
      "frame=   21 fps=0.0 q=-1.0 Lsize=     586kB time=00:00:03.96 bitrate=1210.1kbits/s speed=  28x    \n",
      "video:585kB audio:0kB subtitle:0kB other streams:0kB global headers:0kB muxing overhead: 0.175967%\n",
      "ffmpeg version 4.0.2 Copyright (c) 2000-2018 the FFmpeg developers\n",
      "  built with Apple LLVM version 6.1.0 (clang-602.0.53) (based on LLVM 3.6.0svn)\n",
      "  configuration: --prefix=/anaconda3 --disable-doc --disable-openssl --enable-shared --enable-static --extra-cflags='-Wall -g -m64 -pipe -O3 -march=x86-64 -fPIC' --extra-cxxflags='-Wall -g -m64 -pipe -O3 -march=x86-64 -fPIC' --extra-libs='-lpthread -lm -lz' --enable-zlib --enable-pic --enable-pthreads --enable-gpl --enable-version3 --enable-hardcoded-tables --enable-avresample --enable-libfreetype --enable-gnutls --enable-libx264 --enable-libopenh264\n",
      "  libavutil      56. 14.100 / 56. 14.100\n",
      "  libavcodec     58. 18.100 / 58. 18.100\n",
      "  libavformat    58. 12.100 / 58. 12.100\n",
      "  libavdevice    58.  3.100 / 58.  3.100\n",
      "  libavfilter     7. 16.100 /  7. 16.100\n",
      "  libavresample   4.  0.  0 /  4.  0.  0\n",
      "  libswscale      5.  1.100 /  5.  1.100\n",
      "  libswresample   3.  1.100 /  3.  1.100\n",
      "  libpostproc    55.  1.100 / 55.  1.100\n",
      "Input #0, mov,mp4,m4a,3gp,3g2,mj2, from 'ND1HsSMSKpk.mp4':\n",
      "  Metadata:\n",
      "    major_brand     : dash\n",
      "    minor_version   : 0\n",
      "    compatible_brands: iso6avc1mp41\n",
      "    creation_time   : 2019-08-13T17:58:59.000000Z\n",
      "  Duration: 00:17:46.07, start: 0.000000, bitrate: 4350 kb/s\n",
      "    Stream #0:0(und): Video: h264 (High) (avc1 / 0x31637661), yuv420p(tv, bt709, progressive), 1920x1080 [SAR 1:1 DAR 16:9], 21 kb/s, 30 fps, 30 tbr, 15360 tbn, 60 tbc (default)\n",
      "    Metadata:\n",
      "      creation_time   : 2019-08-13T17:58:59.000000Z\n",
      "      handler_name    : ISO Media file produced by Google Inc.\n",
      "Output #0, mp4, to '/Users/max/Documents/Insight/TwoStepper/classifier/movie_clips/ND1HsSMSKpk_550_552.mp4':\n",
      "  Metadata:\n",
      "    major_brand     : dash\n",
      "    minor_version   : 0\n",
      "    compatible_brands: iso6avc1mp41\n",
      "    encoder         : Lavf58.12.100\n",
      "    Stream #0:0(und): Video: h264 (High) (avc1 / 0x31637661), yuv420p(tv, bt709, progressive), 1920x1080 [SAR 1:1 DAR 16:9], q=2-31, 21 kb/s, 30 fps, 30 tbr, 15360 tbn, 15360 tbc (default)\n",
      "    Metadata:\n",
      "      creation_time   : 2019-08-13T17:58:59.000000Z\n",
      "      handler_name    : ISO Media file produced by Google Inc.\n",
      "Stream mapping:\n",
      "  Stream #0:0 -> #0:0 (copy)\n",
      "Press [q] to stop, [?] for help\n",
      "frame=    0 fps=0.0 q=-1.0 Lsize=       0kB time=00:00:00.00 bitrate=N/A speed=   0x    \n",
      "video:0kB audio:0kB subtitle:0kB other streams:0kB global headers:0kB muxing overhead: unknown\n",
      "ffmpeg version 4.0.2 Copyright (c) 2000-2018 the FFmpeg developers\n",
      "  built with Apple LLVM version 6.1.0 (clang-602.0.53) (based on LLVM 3.6.0svn)\n",
      "  configuration: --prefix=/anaconda3 --disable-doc --disable-openssl --enable-shared --enable-static --extra-cflags='-Wall -g -m64 -pipe -O3 -march=x86-64 -fPIC' --extra-cxxflags='-Wall -g -m64 -pipe -O3 -march=x86-64 -fPIC' --extra-libs='-lpthread -lm -lz' --enable-zlib --enable-pic --enable-pthreads --enable-gpl --enable-version3 --enable-hardcoded-tables --enable-avresample --enable-libfreetype --enable-gnutls --enable-libx264 --enable-libopenh264\n",
      "  libavutil      56. 14.100 / 56. 14.100\n",
      "  libavcodec     58. 18.100 / 58. 18.100\n",
      "  libavformat    58. 12.100 / 58. 12.100\n",
      "  libavdevice    58.  3.100 / 58.  3.100\n",
      "  libavfilter     7. 16.100 /  7. 16.100\n",
      "  libavresample   4.  0.  0 /  4.  0.  0\n",
      "  libswscale      5.  1.100 /  5.  1.100\n",
      "  libswresample   3.  1.100 /  3.  1.100\n",
      "  libpostproc    55.  1.100 / 55.  1.100\n",
      "Input #0, mov,mp4,m4a,3gp,3g2,mj2, from 'ND1HsSMSKpk.mp4':\n",
      "  Metadata:\n",
      "    major_brand     : dash\n",
      "    minor_version   : 0\n",
      "    compatible_brands: iso6avc1mp41\n",
      "    creation_time   : 2019-08-13T17:58:59.000000Z\n",
      "  Duration: 00:17:46.07, start: 0.000000, bitrate: 4350 kb/s\n",
      "    Stream #0:0(und): Video: h264 (High) (avc1 / 0x31637661), yuv420p(tv, bt709, progressive), 1920x1080 [SAR 1:1 DAR 16:9], 21 kb/s, 30 fps, 30 tbr, 15360 tbn, 60 tbc (default)\n",
      "    Metadata:\n",
      "      creation_time   : 2019-08-13T17:58:59.000000Z\n",
      "      handler_name    : ISO Media file produced by Google Inc.\n",
      "Output #0, mp4, to '/Users/max/Documents/Insight/TwoStepper/classifier/movie_clips/ND1HsSMSKpk_552_557.mp4':\n",
      "  Metadata:\n",
      "    major_brand     : dash\n",
      "    minor_version   : 0\n",
      "    compatible_brands: iso6avc1mp41\n",
      "    encoder         : Lavf58.12.100\n",
      "    Stream #0:0(und): Video: h264 (High) (avc1 / 0x31637661), yuv420p(tv, bt709, progressive), 1920x1080 [SAR 1:1 DAR 16:9], q=2-31, 21 kb/s, 30 fps, 30 tbr, 15360 tbn, 15360 tbc (default)\n",
      "    Metadata:\n",
      "      creation_time   : 2019-08-13T17:58:59.000000Z\n",
      "      handler_name    : ISO Media file produced by Google Inc.\n",
      "Stream mapping:\n",
      "  Stream #0:0 -> #0:0 (copy)\n",
      "Press [q] to stop, [?] for help\n",
      "frame=   71 fps=0.0 q=-1.0 Lsize=    1642kB time=00:00:04.96 bitrate=2707.7kbits/s speed=34.1x    \n",
      "video:1640kB audio:0kB subtitle:0kB other streams:0kB global headers:0kB muxing overhead: 0.088953%\n",
      "ffmpeg version 4.0.2 Copyright (c) 2000-2018 the FFmpeg developers\n",
      "  built with Apple LLVM version 6.1.0 (clang-602.0.53) (based on LLVM 3.6.0svn)\n",
      "  configuration: --prefix=/anaconda3 --disable-doc --disable-openssl --enable-shared --enable-static --extra-cflags='-Wall -g -m64 -pipe -O3 -march=x86-64 -fPIC' --extra-cxxflags='-Wall -g -m64 -pipe -O3 -march=x86-64 -fPIC' --extra-libs='-lpthread -lm -lz' --enable-zlib --enable-pic --enable-pthreads --enable-gpl --enable-version3 --enable-hardcoded-tables --enable-avresample --enable-libfreetype --enable-gnutls --enable-libx264 --enable-libopenh264\n",
      "  libavutil      56. 14.100 / 56. 14.100\n",
      "  libavcodec     58. 18.100 / 58. 18.100\n",
      "  libavformat    58. 12.100 / 58. 12.100\n",
      "  libavdevice    58.  3.100 / 58.  3.100\n",
      "  libavfilter     7. 16.100 /  7. 16.100\n",
      "  libavresample   4.  0.  0 /  4.  0.  0\n",
      "  libswscale      5.  1.100 /  5.  1.100\n",
      "  libswresample   3.  1.100 /  3.  1.100\n",
      "  libpostproc    55.  1.100 / 55.  1.100\n",
      "Input #0, mov,mp4,m4a,3gp,3g2,mj2, from 'ND1HsSMSKpk.mp4':\n",
      "  Metadata:\n",
      "    major_brand     : dash\n",
      "    minor_version   : 0\n",
      "    compatible_brands: iso6avc1mp41\n",
      "    creation_time   : 2019-08-13T17:58:59.000000Z\n",
      "  Duration: 00:17:46.07, start: 0.000000, bitrate: 4350 kb/s\n",
      "    Stream #0:0(und): Video: h264 (High) (avc1 / 0x31637661), yuv420p(tv, bt709, progressive), 1920x1080 [SAR 1:1 DAR 16:9], 21 kb/s, 30 fps, 30 tbr, 15360 tbn, 60 tbc (default)\n",
      "    Metadata:\n",
      "      creation_time   : 2019-08-13T17:58:59.000000Z\n",
      "      handler_name    : ISO Media file produced by Google Inc.\n",
      "Output #0, mp4, to '/Users/max/Documents/Insight/TwoStepper/classifier/movie_clips/ND1HsSMSKpk_612_618.mp4':\n",
      "  Metadata:\n",
      "    major_brand     : dash\n",
      "    minor_version   : 0\n",
      "    compatible_brands: iso6avc1mp41\n",
      "    encoder         : Lavf58.12.100\n",
      "    Stream #0:0(und): Video: h264 (High) (avc1 / 0x31637661), yuv420p(tv, bt709, progressive), 1920x1080 [SAR 1:1 DAR 16:9], q=2-31, 21 kb/s, 30 fps, 30 tbr, 15360 tbn, 15360 tbc (default)\n",
      "    Metadata:\n",
      "      creation_time   : 2019-08-13T17:58:59.000000Z\n",
      "      handler_name    : ISO Media file produced by Google Inc.\n",
      "Stream mapping:\n",
      "  Stream #0:0 -> #0:0 (copy)\n",
      "Press [q] to stop, [?] for help\n"
     ]
    },
    {
     "name": "stdout",
     "output_type": "stream",
     "text": [
      "frame=  141 fps=0.0 q=-1.0 Lsize=    2735kB time=00:00:05.96 bitrate=3754.8kbits/s speed=  31x    \n",
      "video:2733kB audio:0kB subtitle:0kB other streams:0kB global headers:0kB muxing overhead: 0.077117%\n",
      "ffmpeg version 4.0.2 Copyright (c) 2000-2018 the FFmpeg developers\n",
      "  built with Apple LLVM version 6.1.0 (clang-602.0.53) (based on LLVM 3.6.0svn)\n",
      "  configuration: --prefix=/anaconda3 --disable-doc --disable-openssl --enable-shared --enable-static --extra-cflags='-Wall -g -m64 -pipe -O3 -march=x86-64 -fPIC' --extra-cxxflags='-Wall -g -m64 -pipe -O3 -march=x86-64 -fPIC' --extra-libs='-lpthread -lm -lz' --enable-zlib --enable-pic --enable-pthreads --enable-gpl --enable-version3 --enable-hardcoded-tables --enable-avresample --enable-libfreetype --enable-gnutls --enable-libx264 --enable-libopenh264\n",
      "  libavutil      56. 14.100 / 56. 14.100\n",
      "  libavcodec     58. 18.100 / 58. 18.100\n",
      "  libavformat    58. 12.100 / 58. 12.100\n",
      "  libavdevice    58.  3.100 / 58.  3.100\n",
      "  libavfilter     7. 16.100 /  7. 16.100\n",
      "  libavresample   4.  0.  0 /  4.  0.  0\n",
      "  libswscale      5.  1.100 /  5.  1.100\n",
      "  libswresample   3.  1.100 /  3.  1.100\n",
      "  libpostproc    55.  1.100 / 55.  1.100\n",
      "Input #0, mov,mp4,m4a,3gp,3g2,mj2, from 'KV8Q-Hi_-QE.mp4':\n",
      "  Metadata:\n",
      "    major_brand     : dash\n",
      "    minor_version   : 0\n",
      "    compatible_brands: iso6avc1mp41\n",
      "    creation_time   : 2018-10-29T02:07:36.000000Z\n",
      "  Duration: 00:05:41.54, start: 0.000000, bitrate: 946 kb/s\n",
      "    Stream #0:0(und): Video: h264 (High) (avc1 / 0x31637661), yuv420p(tv, bt709, progressive), 1920x1080 [SAR 1:1 DAR 16:9], 18 kb/s, 29.97 fps, 29.97 tbr, 90k tbn, 59.94 tbc (default)\n",
      "    Metadata:\n",
      "      creation_time   : 2018-10-29T02:07:36.000000Z\n",
      "      handler_name    : VideoHandler\n",
      "Output #0, mp4, to '/Users/max/Documents/Insight/TwoStepper/classifier/movie_clips/KV8Q-Hi_-QE_114_116.mp4':\n",
      "  Metadata:\n",
      "    major_brand     : dash\n",
      "    minor_version   : 0\n",
      "    compatible_brands: iso6avc1mp41\n",
      "    encoder         : Lavf58.12.100\n",
      "    Stream #0:0(und): Video: h264 (High) (avc1 / 0x31637661), yuv420p(tv, bt709, progressive), 1920x1080 [SAR 1:1 DAR 16:9], q=2-31, 18 kb/s, 29.97 fps, 29.97 tbr, 90k tbn, 90k tbc (default)\n",
      "    Metadata:\n",
      "      creation_time   : 2018-10-29T02:07:36.000000Z\n",
      "      handler_name    : VideoHandler\n",
      "Stream mapping:\n",
      "  Stream #0:0 -> #0:0 (copy)\n",
      "Press [q] to stop, [?] for help\n",
      "frame=    0 fps=0.0 q=-1.0 Lsize=       0kB time=00:00:00.00 bitrate=N/A speed=   0x    \n",
      "video:0kB audio:0kB subtitle:0kB other streams:0kB global headers:0kB muxing overhead: unknown\n",
      "ffmpeg version 4.0.2 Copyright (c) 2000-2018 the FFmpeg developers\n",
      "  built with Apple LLVM version 6.1.0 (clang-602.0.53) (based on LLVM 3.6.0svn)\n",
      "  configuration: --prefix=/anaconda3 --disable-doc --disable-openssl --enable-shared --enable-static --extra-cflags='-Wall -g -m64 -pipe -O3 -march=x86-64 -fPIC' --extra-cxxflags='-Wall -g -m64 -pipe -O3 -march=x86-64 -fPIC' --extra-libs='-lpthread -lm -lz' --enable-zlib --enable-pic --enable-pthreads --enable-gpl --enable-version3 --enable-hardcoded-tables --enable-avresample --enable-libfreetype --enable-gnutls --enable-libx264 --enable-libopenh264\n",
      "  libavutil      56. 14.100 / 56. 14.100\n",
      "  libavcodec     58. 18.100 / 58. 18.100\n",
      "  libavformat    58. 12.100 / 58. 12.100\n",
      "  libavdevice    58.  3.100 / 58.  3.100\n",
      "  libavfilter     7. 16.100 /  7. 16.100\n",
      "  libavresample   4.  0.  0 /  4.  0.  0\n",
      "  libswscale      5.  1.100 /  5.  1.100\n",
      "  libswresample   3.  1.100 /  3.  1.100\n",
      "  libpostproc    55.  1.100 / 55.  1.100\n",
      "Input #0, mov,mp4,m4a,3gp,3g2,mj2, from 'KV8Q-Hi_-QE.mp4':\n",
      "  Metadata:\n",
      "    major_brand     : dash\n",
      "    minor_version   : 0\n",
      "    compatible_brands: iso6avc1mp41\n",
      "    creation_time   : 2018-10-29T02:07:36.000000Z\n",
      "  Duration: 00:05:41.54, start: 0.000000, bitrate: 946 kb/s\n",
      "    Stream #0:0(und): Video: h264 (High) (avc1 / 0x31637661), yuv420p(tv, bt709, progressive), 1920x1080 [SAR 1:1 DAR 16:9], 18 kb/s, 29.97 fps, 29.97 tbr, 90k tbn, 59.94 tbc (default)\n",
      "    Metadata:\n",
      "      creation_time   : 2018-10-29T02:07:36.000000Z\n",
      "      handler_name    : VideoHandler\n",
      "Output #0, mp4, to '/Users/max/Documents/Insight/TwoStepper/classifier/movie_clips/KV8Q-Hi_-QE_239_242.mp4':\n",
      "  Metadata:\n",
      "    major_brand     : dash\n",
      "    minor_version   : 0\n",
      "    compatible_brands: iso6avc1mp41\n",
      "    encoder         : Lavf58.12.100\n",
      "    Stream #0:0(und): Video: h264 (High) (avc1 / 0x31637661), yuv420p(tv, bt709, progressive), 1920x1080 [SAR 1:1 DAR 16:9], q=2-31, 18 kb/s, 29.97 fps, 29.97 tbr, 90k tbn, 90k tbc (default)\n",
      "    Metadata:\n",
      "      creation_time   : 2018-10-29T02:07:36.000000Z\n",
      "      handler_name    : VideoHandler\n",
      "Stream mapping:\n",
      "  Stream #0:0 -> #0:0 (copy)\n",
      "Press [q] to stop, [?] for help\n",
      "frame=   70 fps=0.0 q=-1.0 Lsize=     430kB time=00:00:02.97 bitrate=1183.8kbits/s speed=75.7x    \n",
      "video:428kB audio:0kB subtitle:0kB other streams:0kB global headers:0kB muxing overhead: 0.377802%\n",
      "ffmpeg version 4.0.2 Copyright (c) 2000-2018 the FFmpeg developers\n",
      "  built with Apple LLVM version 6.1.0 (clang-602.0.53) (based on LLVM 3.6.0svn)\n",
      "  configuration: --prefix=/anaconda3 --disable-doc --disable-openssl --enable-shared --enable-static --extra-cflags='-Wall -g -m64 -pipe -O3 -march=x86-64 -fPIC' --extra-cxxflags='-Wall -g -m64 -pipe -O3 -march=x86-64 -fPIC' --extra-libs='-lpthread -lm -lz' --enable-zlib --enable-pic --enable-pthreads --enable-gpl --enable-version3 --enable-hardcoded-tables --enable-avresample --enable-libfreetype --enable-gnutls --enable-libx264 --enable-libopenh264\n",
      "  libavutil      56. 14.100 / 56. 14.100\n",
      "  libavcodec     58. 18.100 / 58. 18.100\n",
      "  libavformat    58. 12.100 / 58. 12.100\n",
      "  libavdevice    58.  3.100 / 58.  3.100\n",
      "  libavfilter     7. 16.100 /  7. 16.100\n",
      "  libavresample   4.  0.  0 /  4.  0.  0\n",
      "  libswscale      5.  1.100 /  5.  1.100\n",
      "  libswresample   3.  1.100 /  3.  1.100\n",
      "  libpostproc    55.  1.100 / 55.  1.100\n",
      "Input #0, mov,mp4,m4a,3gp,3g2,mj2, from 'KV8Q-Hi_-QE.mp4':\n",
      "  Metadata:\n",
      "    major_brand     : dash\n",
      "    minor_version   : 0\n",
      "    compatible_brands: iso6avc1mp41\n",
      "    creation_time   : 2018-10-29T02:07:36.000000Z\n",
      "  Duration: 00:05:41.54, start: 0.000000, bitrate: 946 kb/s\n",
      "    Stream #0:0(und): Video: h264 (High) (avc1 / 0x31637661), yuv420p(tv, bt709, progressive), 1920x1080 [SAR 1:1 DAR 16:9], 18 kb/s, 29.97 fps, 29.97 tbr, 90k tbn, 59.94 tbc (default)\n",
      "    Metadata:\n",
      "      creation_time   : 2018-10-29T02:07:36.000000Z\n",
      "      handler_name    : VideoHandler\n",
      "Output #0, mp4, to '/Users/max/Documents/Insight/TwoStepper/classifier/movie_clips/KV8Q-Hi_-QE_285_287.mp4':\n",
      "  Metadata:\n",
      "    major_brand     : dash\n",
      "    minor_version   : 0\n",
      "    compatible_brands: iso6avc1mp41\n",
      "    encoder         : Lavf58.12.100\n",
      "    Stream #0:0(und): Video: h264 (High) (avc1 / 0x31637661), yuv420p(tv, bt709, progressive), 1920x1080 [SAR 1:1 DAR 16:9], q=2-31, 18 kb/s, 29.97 fps, 29.97 tbr, 90k tbn, 90k tbc (default)\n",
      "    Metadata:\n",
      "      creation_time   : 2018-10-29T02:07:36.000000Z\n",
      "      handler_name    : VideoHandler\n",
      "Stream mapping:\n",
      "  Stream #0:0 -> #0:0 (copy)\n",
      "Press [q] to stop, [?] for help\n",
      "frame=    0 fps=0.0 q=-1.0 Lsize=       0kB time=00:00:00.00 bitrate=N/A speed=   0x    \n",
      "video:0kB audio:0kB subtitle:0kB other streams:0kB global headers:0kB muxing overhead: unknown\n",
      "ffmpeg version 4.0.2 Copyright (c) 2000-2018 the FFmpeg developers\n",
      "  built with Apple LLVM version 6.1.0 (clang-602.0.53) (based on LLVM 3.6.0svn)\n",
      "  configuration: --prefix=/anaconda3 --disable-doc --disable-openssl --enable-shared --enable-static --extra-cflags='-Wall -g -m64 -pipe -O3 -march=x86-64 -fPIC' --extra-cxxflags='-Wall -g -m64 -pipe -O3 -march=x86-64 -fPIC' --extra-libs='-lpthread -lm -lz' --enable-zlib --enable-pic --enable-pthreads --enable-gpl --enable-version3 --enable-hardcoded-tables --enable-avresample --enable-libfreetype --enable-gnutls --enable-libx264 --enable-libopenh264\n",
      "  libavutil      56. 14.100 / 56. 14.100\n",
      "  libavcodec     58. 18.100 / 58. 18.100\n",
      "  libavformat    58. 12.100 / 58. 12.100\n",
      "  libavdevice    58.  3.100 / 58.  3.100\n",
      "  libavfilter     7. 16.100 /  7. 16.100\n",
      "  libavresample   4.  0.  0 /  4.  0.  0\n",
      "  libswscale      5.  1.100 /  5.  1.100\n",
      "  libswresample   3.  1.100 /  3.  1.100\n",
      "  libpostproc    55.  1.100 / 55.  1.100\n",
      "Input #0, mov,mp4,m4a,3gp,3g2,mj2, from 'KV8Q-Hi_-QE.mp4':\n",
      "  Metadata:\n",
      "    major_brand     : dash\n",
      "    minor_version   : 0\n",
      "    compatible_brands: iso6avc1mp41\n",
      "    creation_time   : 2018-10-29T02:07:36.000000Z\n",
      "  Duration: 00:05:41.54, start: 0.000000, bitrate: 946 kb/s\n",
      "    Stream #0:0(und): Video: h264 (High) (avc1 / 0x31637661), yuv420p(tv, bt709, progressive), 1920x1080 [SAR 1:1 DAR 16:9], 18 kb/s, 29.97 fps, 29.97 tbr, 90k tbn, 59.94 tbc (default)\n",
      "    Metadata:\n",
      "      creation_time   : 2018-10-29T02:07:36.000000Z\n",
      "      handler_name    : VideoHandler\n",
      "Output #0, mp4, to '/Users/max/Documents/Insight/TwoStepper/classifier/movie_clips/KV8Q-Hi_-QE_298_301.mp4':\n",
      "  Metadata:\n",
      "    major_brand     : dash\n",
      "    minor_version   : 0\n",
      "    compatible_brands: iso6avc1mp41\n",
      "    encoder         : Lavf58.12.100\n",
      "    Stream #0:0(und): Video: h264 (High) (avc1 / 0x31637661), yuv420p(tv, bt709, progressive), 1920x1080 [SAR 1:1 DAR 16:9], q=2-31, 18 kb/s, 29.97 fps, 29.97 tbr, 90k tbn, 90k tbc (default)\n",
      "    Metadata:\n",
      "      creation_time   : 2018-10-29T02:07:36.000000Z\n",
      "      handler_name    : VideoHandler\n",
      "Stream mapping:\n",
      "  Stream #0:0 -> #0:0 (copy)\n",
      "Press [q] to stop, [?] for help\n"
     ]
    },
    {
     "name": "stdout",
     "output_type": "stream",
     "text": [
      "frame=   78 fps=0.0 q=-1.0 Lsize=     555kB time=00:00:02.96 bitrate=1531.3kbits/s speed=75.2x    \n",
      "video:553kB audio:0kB subtitle:0kB other streams:0kB global headers:0kB muxing overhead: 0.312420%\n",
      "ffmpeg version 4.0.2 Copyright (c) 2000-2018 the FFmpeg developers\n",
      "  built with Apple LLVM version 6.1.0 (clang-602.0.53) (based on LLVM 3.6.0svn)\n",
      "  configuration: --prefix=/anaconda3 --disable-doc --disable-openssl --enable-shared --enable-static --extra-cflags='-Wall -g -m64 -pipe -O3 -march=x86-64 -fPIC' --extra-cxxflags='-Wall -g -m64 -pipe -O3 -march=x86-64 -fPIC' --extra-libs='-lpthread -lm -lz' --enable-zlib --enable-pic --enable-pthreads --enable-gpl --enable-version3 --enable-hardcoded-tables --enable-avresample --enable-libfreetype --enable-gnutls --enable-libx264 --enable-libopenh264\n",
      "  libavutil      56. 14.100 / 56. 14.100\n",
      "  libavcodec     58. 18.100 / 58. 18.100\n",
      "  libavformat    58. 12.100 / 58. 12.100\n",
      "  libavdevice    58.  3.100 / 58.  3.100\n",
      "  libavfilter     7. 16.100 /  7. 16.100\n",
      "  libavresample   4.  0.  0 /  4.  0.  0\n",
      "  libswscale      5.  1.100 /  5.  1.100\n",
      "  libswresample   3.  1.100 /  3.  1.100\n",
      "  libpostproc    55.  1.100 / 55.  1.100\n",
      "Input #0, mov,mp4,m4a,3gp,3g2,mj2, from 'KV8Q-Hi_-QE.mp4':\n",
      "  Metadata:\n",
      "    major_brand     : dash\n",
      "    minor_version   : 0\n",
      "    compatible_brands: iso6avc1mp41\n",
      "    creation_time   : 2018-10-29T02:07:36.000000Z\n",
      "  Duration: 00:05:41.54, start: 0.000000, bitrate: 946 kb/s\n",
      "    Stream #0:0(und): Video: h264 (High) (avc1 / 0x31637661), yuv420p(tv, bt709, progressive), 1920x1080 [SAR 1:1 DAR 16:9], 18 kb/s, 29.97 fps, 29.97 tbr, 90k tbn, 59.94 tbc (default)\n",
      "    Metadata:\n",
      "      creation_time   : 2018-10-29T02:07:36.000000Z\n",
      "      handler_name    : VideoHandler\n",
      "Output #0, mp4, to '/Users/max/Documents/Insight/TwoStepper/classifier/movie_clips/KV8Q-Hi_-QE_302_304.mp4':\n",
      "  Metadata:\n",
      "    major_brand     : dash\n",
      "    minor_version   : 0\n",
      "    compatible_brands: iso6avc1mp41\n",
      "    encoder         : Lavf58.12.100\n",
      "    Stream #0:0(und): Video: h264 (High) (avc1 / 0x31637661), yuv420p(tv, bt709, progressive), 1920x1080 [SAR 1:1 DAR 16:9], q=2-31, 18 kb/s, 29.97 fps, 29.97 tbr, 90k tbn, 90k tbc (default)\n",
      "    Metadata:\n",
      "      creation_time   : 2018-10-29T02:07:36.000000Z\n",
      "      handler_name    : VideoHandler\n",
      "Stream mapping:\n",
      "  Stream #0:0 -> #0:0 (copy)\n",
      "Press [q] to stop, [?] for help\n",
      "frame=    8 fps=0.0 q=-1.0 Lsize=      81kB time=00:00:01.97 bitrate= 335.4kbits/s speed=47.8x    \n",
      "video:80kB audio:0kB subtitle:0kB other streams:0kB global headers:0kB muxing overhead: 1.176888%\n",
      "ffmpeg version 4.0.2 Copyright (c) 2000-2018 the FFmpeg developers\n",
      "  built with Apple LLVM version 6.1.0 (clang-602.0.53) (based on LLVM 3.6.0svn)\n",
      "  configuration: --prefix=/anaconda3 --disable-doc --disable-openssl --enable-shared --enable-static --extra-cflags='-Wall -g -m64 -pipe -O3 -march=x86-64 -fPIC' --extra-cxxflags='-Wall -g -m64 -pipe -O3 -march=x86-64 -fPIC' --extra-libs='-lpthread -lm -lz' --enable-zlib --enable-pic --enable-pthreads --enable-gpl --enable-version3 --enable-hardcoded-tables --enable-avresample --enable-libfreetype --enable-gnutls --enable-libx264 --enable-libopenh264\n",
      "  libavutil      56. 14.100 / 56. 14.100\n",
      "  libavcodec     58. 18.100 / 58. 18.100\n",
      "  libavformat    58. 12.100 / 58. 12.100\n",
      "  libavdevice    58.  3.100 / 58.  3.100\n",
      "  libavfilter     7. 16.100 /  7. 16.100\n",
      "  libavresample   4.  0.  0 /  4.  0.  0\n",
      "  libswscale      5.  1.100 /  5.  1.100\n",
      "  libswresample   3.  1.100 /  3.  1.100\n",
      "  libpostproc    55.  1.100 / 55.  1.100\n",
      "Input #0, mov,mp4,m4a,3gp,3g2,mj2, from 'PdhZI_90WR4.mp4':\n",
      "  Metadata:\n",
      "    major_brand     : dash\n",
      "    minor_version   : 0\n",
      "    compatible_brands: iso6avc1mp41\n",
      "    creation_time   : 2018-03-13T23:31:33.000000Z\n",
      "  Duration: 00:01:45.00, start: 0.000000, bitrate: 2896 kb/s\n",
      "    Stream #0:0(und): Video: h264 (High) (avc1 / 0x31637661), yuv420p(tv, bt709, progressive), 1920x1080 [SAR 1:1 DAR 16:9], 142 kb/s, 29.97 fps, 29.97 tbr, 90k tbn, 59.94 tbc (default)\n",
      "    Metadata:\n",
      "      creation_time   : 2018-03-13T23:31:33.000000Z\n",
      "      handler_name    : VideoHandler\n",
      "Output #0, mp4, to '/Users/max/Documents/Insight/TwoStepper/classifier/movie_clips/PdhZI_90WR4_10_13.mp4':\n",
      "  Metadata:\n",
      "    major_brand     : dash\n",
      "    minor_version   : 0\n",
      "    compatible_brands: iso6avc1mp41\n",
      "    encoder         : Lavf58.12.100\n",
      "    Stream #0:0(und): Video: h264 (High) (avc1 / 0x31637661), yuv420p(tv, bt709, progressive), 1920x1080 [SAR 1:1 DAR 16:9], q=2-31, 142 kb/s, 29.97 fps, 29.97 tbr, 90k tbn, 90k tbc (default)\n",
      "    Metadata:\n",
      "      creation_time   : 2018-03-13T23:31:33.000000Z\n",
      "      handler_name    : VideoHandler\n",
      "Stream mapping:\n",
      "  Stream #0:0 -> #0:0 (copy)\n",
      "Press [q] to stop, [?] for help\n",
      "frame=   71 fps=0.0 q=-1.0 Lsize=    1072kB time=00:00:02.97 bitrate=2946.7kbits/s speed= 464x    \n",
      "video:1070kB audio:0kB subtitle:0kB other streams:0kB global headers:0kB muxing overhead: 0.150016%\n",
      "ffmpeg version 4.0.2 Copyright (c) 2000-2018 the FFmpeg developers\n",
      "  built with Apple LLVM version 6.1.0 (clang-602.0.53) (based on LLVM 3.6.0svn)\n",
      "  configuration: --prefix=/anaconda3 --disable-doc --disable-openssl --enable-shared --enable-static --extra-cflags='-Wall -g -m64 -pipe -O3 -march=x86-64 -fPIC' --extra-cxxflags='-Wall -g -m64 -pipe -O3 -march=x86-64 -fPIC' --extra-libs='-lpthread -lm -lz' --enable-zlib --enable-pic --enable-pthreads --enable-gpl --enable-version3 --enable-hardcoded-tables --enable-avresample --enable-libfreetype --enable-gnutls --enable-libx264 --enable-libopenh264\n",
      "  libavutil      56. 14.100 / 56. 14.100\n",
      "  libavcodec     58. 18.100 / 58. 18.100\n",
      "  libavformat    58. 12.100 / 58. 12.100\n",
      "  libavdevice    58.  3.100 / 58.  3.100\n",
      "  libavfilter     7. 16.100 /  7. 16.100\n",
      "  libavresample   4.  0.  0 /  4.  0.  0\n",
      "  libswscale      5.  1.100 /  5.  1.100\n",
      "  libswresample   3.  1.100 /  3.  1.100\n",
      "  libpostproc    55.  1.100 / 55.  1.100\n",
      "Input #0, mov,mp4,m4a,3gp,3g2,mj2, from 'PdhZI_90WR4.mp4':\n",
      "  Metadata:\n",
      "    major_brand     : dash\n",
      "    minor_version   : 0\n",
      "    compatible_brands: iso6avc1mp41\n",
      "    creation_time   : 2018-03-13T23:31:33.000000Z\n",
      "  Duration: 00:01:45.00, start: 0.000000, bitrate: 2896 kb/s\n",
      "    Stream #0:0(und): Video: h264 (High) (avc1 / 0x31637661), yuv420p(tv, bt709, progressive), 1920x1080 [SAR 1:1 DAR 16:9], 142 kb/s, 29.97 fps, 29.97 tbr, 90k tbn, 59.94 tbc (default)\n",
      "    Metadata:\n",
      "      creation_time   : 2018-03-13T23:31:33.000000Z\n",
      "      handler_name    : VideoHandler\n",
      "Output #0, mp4, to '/Users/max/Documents/Insight/TwoStepper/classifier/movie_clips/PdhZI_90WR4_24_26.mp4':\n",
      "  Metadata:\n",
      "    major_brand     : dash\n",
      "    minor_version   : 0\n",
      "    compatible_brands: iso6avc1mp41\n",
      "    encoder         : Lavf58.12.100\n",
      "    Stream #0:0(und): Video: h264 (High) (avc1 / 0x31637661), yuv420p(tv, bt709, progressive), 1920x1080 [SAR 1:1 DAR 16:9], q=2-31, 142 kb/s, 29.97 fps, 29.97 tbr, 90k tbn, 90k tbc (default)\n",
      "    Metadata:\n",
      "      creation_time   : 2018-03-13T23:31:33.000000Z\n",
      "      handler_name    : VideoHandler\n",
      "Stream mapping:\n",
      "  Stream #0:0 -> #0:0 (copy)\n",
      "Press [q] to stop, [?] for help\n",
      "frame=    0 fps=0.0 q=-1.0 Lsize=       0kB time=00:00:00.00 bitrate=N/A speed=   0x    \n",
      "video:0kB audio:0kB subtitle:0kB other streams:0kB global headers:0kB muxing overhead: unknown\n",
      "ffmpeg version 4.0.2 Copyright (c) 2000-2018 the FFmpeg developers\n",
      "  built with Apple LLVM version 6.1.0 (clang-602.0.53) (based on LLVM 3.6.0svn)\n",
      "  configuration: --prefix=/anaconda3 --disable-doc --disable-openssl --enable-shared --enable-static --extra-cflags='-Wall -g -m64 -pipe -O3 -march=x86-64 -fPIC' --extra-cxxflags='-Wall -g -m64 -pipe -O3 -march=x86-64 -fPIC' --extra-libs='-lpthread -lm -lz' --enable-zlib --enable-pic --enable-pthreads --enable-gpl --enable-version3 --enable-hardcoded-tables --enable-avresample --enable-libfreetype --enable-gnutls --enable-libx264 --enable-libopenh264\n",
      "  libavutil      56. 14.100 / 56. 14.100\n",
      "  libavcodec     58. 18.100 / 58. 18.100\n",
      "  libavformat    58. 12.100 / 58. 12.100\n",
      "  libavdevice    58.  3.100 / 58.  3.100\n",
      "  libavfilter     7. 16.100 /  7. 16.100\n",
      "  libavresample   4.  0.  0 /  4.  0.  0\n",
      "  libswscale      5.  1.100 /  5.  1.100\n",
      "  libswresample   3.  1.100 /  3.  1.100\n",
      "  libpostproc    55.  1.100 / 55.  1.100\n",
      "Input #0, mov,mp4,m4a,3gp,3g2,mj2, from 'PdhZI_90WR4.mp4':\n",
      "  Metadata:\n",
      "    major_brand     : dash\n",
      "    minor_version   : 0\n",
      "    compatible_brands: iso6avc1mp41\n",
      "    creation_time   : 2018-03-13T23:31:33.000000Z\n",
      "  Duration: 00:01:45.00, start: 0.000000, bitrate: 2896 kb/s\n",
      "    Stream #0:0(und): Video: h264 (High) (avc1 / 0x31637661), yuv420p(tv, bt709, progressive), 1920x1080 [SAR 1:1 DAR 16:9], 142 kb/s, 29.97 fps, 29.97 tbr, 90k tbn, 59.94 tbc (default)\n",
      "    Metadata:\n",
      "      creation_time   : 2018-03-13T23:31:33.000000Z\n",
      "      handler_name    : VideoHandler\n",
      "Output #0, mp4, to '/Users/max/Documents/Insight/TwoStepper/classifier/movie_clips/PdhZI_90WR4_58_62.mp4':\n",
      "  Metadata:\n",
      "    major_brand     : dash\n",
      "    minor_version   : 0\n",
      "    compatible_brands: iso6avc1mp41\n",
      "    encoder         : Lavf58.12.100\n",
      "    Stream #0:0(und): Video: h264 (High) (avc1 / 0x31637661), yuv420p(tv, bt709, progressive), 1920x1080 [SAR 1:1 DAR 16:9], q=2-31, 142 kb/s, 29.97 fps, 29.97 tbr, 90k tbn, 90k tbc (default)\n",
      "    Metadata:\n",
      "      creation_time   : 2018-03-13T23:31:33.000000Z\n",
      "      handler_name    : VideoHandler\n",
      "Stream mapping:\n",
      "  Stream #0:0 -> #0:0 (copy)\n",
      "Press [q] to stop, [?] for help\n",
      "frame=  100 fps=0.0 q=-1.0 Lsize=    1446kB time=00:00:03.99 bitrate=2963.9kbits/s speed= 188x    \n"
     ]
    },
    {
     "name": "stdout",
     "output_type": "stream",
     "text": [
      "video:1444kB audio:0kB subtitle:0kB other streams:0kB global headers:0kB muxing overhead: 0.126629%\n",
      "ffmpeg version 4.0.2 Copyright (c) 2000-2018 the FFmpeg developers\n",
      "  built with Apple LLVM version 6.1.0 (clang-602.0.53) (based on LLVM 3.6.0svn)\n",
      "  configuration: --prefix=/anaconda3 --disable-doc --disable-openssl --enable-shared --enable-static --extra-cflags='-Wall -g -m64 -pipe -O3 -march=x86-64 -fPIC' --extra-cxxflags='-Wall -g -m64 -pipe -O3 -march=x86-64 -fPIC' --extra-libs='-lpthread -lm -lz' --enable-zlib --enable-pic --enable-pthreads --enable-gpl --enable-version3 --enable-hardcoded-tables --enable-avresample --enable-libfreetype --enable-gnutls --enable-libx264 --enable-libopenh264\n",
      "  libavutil      56. 14.100 / 56. 14.100\n",
      "  libavcodec     58. 18.100 / 58. 18.100\n",
      "  libavformat    58. 12.100 / 58. 12.100\n",
      "  libavdevice    58.  3.100 / 58.  3.100\n",
      "  libavfilter     7. 16.100 /  7. 16.100\n",
      "  libavresample   4.  0.  0 /  4.  0.  0\n",
      "  libswscale      5.  1.100 /  5.  1.100\n",
      "  libswresample   3.  1.100 /  3.  1.100\n",
      "  libpostproc    55.  1.100 / 55.  1.100\n",
      "Input #0, mov,mp4,m4a,3gp,3g2,mj2, from 'PdhZI_90WR4.mp4':\n",
      "  Metadata:\n",
      "    major_brand     : dash\n",
      "    minor_version   : 0\n",
      "    compatible_brands: iso6avc1mp41\n",
      "    creation_time   : 2018-03-13T23:31:33.000000Z\n",
      "  Duration: 00:01:45.00, start: 0.000000, bitrate: 2896 kb/s\n",
      "    Stream #0:0(und): Video: h264 (High) (avc1 / 0x31637661), yuv420p(tv, bt709, progressive), 1920x1080 [SAR 1:1 DAR 16:9], 142 kb/s, 29.97 fps, 29.97 tbr, 90k tbn, 59.94 tbc (default)\n",
      "    Metadata:\n",
      "      creation_time   : 2018-03-13T23:31:33.000000Z\n",
      "      handler_name    : VideoHandler\n",
      "Output #0, mp4, to '/Users/max/Documents/Insight/TwoStepper/classifier/movie_clips/PdhZI_90WR4_81_83.mp4':\n",
      "  Metadata:\n",
      "    major_brand     : dash\n",
      "    minor_version   : 0\n",
      "    compatible_brands: iso6avc1mp41\n",
      "    encoder         : Lavf58.12.100\n",
      "    Stream #0:0(und): Video: h264 (High) (avc1 / 0x31637661), yuv420p(tv, bt709, progressive), 1920x1080 [SAR 1:1 DAR 16:9], q=2-31, 142 kb/s, 29.97 fps, 29.97 tbr, 90k tbn, 90k tbc (default)\n",
      "    Metadata:\n",
      "      creation_time   : 2018-03-13T23:31:33.000000Z\n",
      "      handler_name    : VideoHandler\n",
      "Stream mapping:\n",
      "  Stream #0:0 -> #0:0 (copy)\n",
      "Press [q] to stop, [?] for help\n",
      "frame=    0 fps=0.0 q=-1.0 Lsize=       0kB time=00:00:00.00 bitrate=N/A speed=   0x    \n",
      "video:0kB audio:0kB subtitle:0kB other streams:0kB global headers:0kB muxing overhead: unknown\n"
     ]
    }
   ],
   "source": [
    "os.chdir('/Users/max/Documents/Insight/TwoStepper/classifier/')\n",
    "try:\n",
    "    if not os.path.exists('youtube_videos'):\n",
    "        os.makedirs('youtube_videos')\n",
    "    if not os.path.exists('movie_clips'):\n",
    "        os.makedirs('movie_clips')\n",
    "    if not os.path.exists('frames'):\n",
    "        os.makedirs('frames')        \n",
    "except OSError:\n",
    "    print ('Error: Creating directory of data')\n",
    "\n",
    "os.chdir('/Users/max/Documents/Insight/TwoStepper/classifier/youtube_videos')\n",
    "\n",
    "for kk in range(len(title_unique_vals)):\n",
    "    url_lookup = url_unique_vals[kk]\n",
    "#     !youtube-dl -f 'bestvideo[height<=480, ext=mp4]' $url_lookup --id\n",
    "    title = title_unique_vals[kk]\n",
    "    \n",
    "    dfsub = df[df['Title'].str.match(title_unique_vals[kk])]\n",
    "    dfsub = dfsub.reset_index()\n",
    "\n",
    "\n",
    "    \n",
    "    \n",
    "    \n",
    "    for jj in range(len(dfsub)):\n",
    "        start_time = get_sec(dfsub.start_time[jj])\n",
    "        end_time = get_sec(dfsub.end_time[jj])\n",
    "        movie_name = dfsub.URL[jj][-11:] + '.mp4'\n",
    "#         movie_name = os.listdir()[jj]\n",
    "        movie_out_clip = dfsub.URL[jj][-11:] + '_' + str(start_time) + '_' + str(end_time) + '.mp4'\n",
    "        movie_out_name_and_path = '/Users/max/Documents/Insight/TwoStepper/classifier/movie_clips/' + movie_out_clip \n",
    "#         !ffmpeg -i $movie_name -ss $start_time -t $end_time -async 1 $movie_out_name_and_path \n",
    "        !ffmpeg -i $movie_name -ss $start_time -to $end_time -c copy $movie_out_name_and_path \n",
    "\n",
    "    \n",
    "\n",
    "    \n",
    "    "
   ]
  },
  {
   "cell_type": "code",
   "execution_count": 42,
   "metadata": {},
   "outputs": [],
   "source": [
    "os.chdir('/Users/max/Documents/Insight/TwoStepper/classifier/movie_clips')\n",
    "\n",
    "pathway_to_classifier = '/Users/max/Documents/Insight/TwoStepper/classifier/'\n",
    "pathway_to_clips = '/Users/max/Documents/Insight/TwoStepper/classifier/movie_clips'\n",
    "pathway_to_frames ='/Users/max/Documents/Insight/TwoStepper/classifier/frames'\n",
    "\n",
    "os.chdir(pathway_to_clips)\n",
    "\n",
    "clip_names = os.listdir()\n",
    "\n",
    "\n",
    "\n",
    "for ii in range(len(clip_names)):\n",
    "    #################### Setting up the file ################\n",
    "    clip_name = clip_names[ii]\n",
    "    vidcap = cv2.VideoCapture(clip_name)\n",
    "    success,image = vidcap.read()\n",
    "    \n",
    "    frame_dir = pathway_to_frames + '/' + clip_name[:-4]\n",
    "    \n",
    "    try:\n",
    "        if not os.path.exists(frame_dir):\n",
    "            os.makedirs(frame_dir)\n",
    "    except OSError:\n",
    "        print ('Error: Creating directory of data')\n",
    "\n",
    "#     # #################### Setting up parameters ################\n",
    "\n",
    "#     #OpenCV is notorious for not being able to good to \n",
    "#     # predict how many frames are in a video. The point here is just to \n",
    "#     # populate the \"desired_frames\" list for all the individual frames\n",
    "#     # you'd like to capture. \n",
    "\n",
    "    fps = vidcap.get(cv2.CAP_PROP_FPS)\n",
    "    est_video_length_secs = 20         # Round up if not sure.\n",
    "    est_tot_frames = est_video_length_secs * fps  # Sets an upper bound # of frames in video clip\n",
    "\n",
    "    n = 5                            # Desired interval of frames to include\n",
    "    desired_frames = n * np.arange(est_tot_frames) \n",
    "\n",
    "\n",
    "#     # #################### Initiate Process ################\n",
    "\n",
    "    for i in desired_frames:\n",
    "        vidcap.set(1,i-1)                      \n",
    "        success,image = vidcap.read(1)         # image is an array of array of [R,G,B] values\n",
    "        frameId = vidcap.get(1)                # The 0th frame is often a throw-away\n",
    "        frame_name_and_path = frame_dir + '/frame%d.jpg'\n",
    "        cv2.imwrite(frame_name_and_path % frameId, image)\n",
    "\n",
    "    vidcap.release()\n",
    "    cv2.destroyAllWindows()\n"
   ]
  }
 ],
 "metadata": {
  "kernelspec": {
   "display_name": "Python 3",
   "language": "python",
   "name": "python3"
  },
  "language_info": {
   "codemirror_mode": {
    "name": "ipython",
    "version": 3
   },
   "file_extension": ".py",
   "mimetype": "text/x-python",
   "name": "python",
   "nbconvert_exporter": "python",
   "pygments_lexer": "ipython3",
   "version": "3.7.6"
  }
 },
 "nbformat": 4,
 "nbformat_minor": 2
}
